<svg width="289" height="289" viewBox="0 0 289 289" fill="none" xmlns="http://www.w3.org/2000/svg">
<path d="M130.473 73.2621C118.588 52.7813 92.0486 42.7808 68.9616 48.2545C45.8747 53.7281 27.2543 73.0611 20.4471 95.734C13.64 118.407 17.9701 143.648 29.8614 164.129C41.7527 184.61 60.6982 200.486 81.9452 211.018C137.858 238.75 215.454 237.881 260.159 194.37C269.69 185.09 283.675 174.052 286.321 156.152C289.24 136.417 281.217 123.29 268.943 111.649C252.968 96.4863 228.887 101.37 211.189 106.137C193.492 110.903 176.822 119.963 161.778 109.554" fill="#EBEBEB"/>
<path d="M289 288.243C289 288.341 224.297 288.412 144.503 288.412C64.7098 288.412 0 288.341 0 288.243C0 288.146 64.6838 288.074 144.503 288.074C224.323 288.074 289 288.152 289 288.243Z" fill="#263238"/>
<path d="M81.6597 85.5336C81.6597 85.5336 83.4281 74.9559 83.8507 74.1517C84.2733 73.3475 89.1559 68.4057 89.7346 68.3149C90.3132 68.2241 98.0175 65.7985 97.5884 67.0178C97.1593 68.237 91.7371 69.8325 91.7371 69.8325L91.2234 70.481C91.2234 70.481 95.846 68.9764 96.9903 69.0153C98.1346 69.0542 98.2386 70.1502 97.4129 70.4615C96.5872 70.7728 92.5172 71.9597 92.3612 72.2191C92.2052 72.4785 96.9123 71.136 97.4844 71.162C98.2776 71.1944 98.8497 72.1931 98.0436 72.5369C97.5624 72.7314 93.0374 73.7691 93.0374 73.7691C94.4327 73.5862 95.8369 73.478 97.2439 73.4448C97.9395 73.6329 97.894 74.476 97.1138 74.677C96.5872 74.8132 93.8241 74.9365 93.1219 75.1245C93.1219 75.1245 92.5953 75.5655 92.6148 76.9664C92.6343 78.3672 90.8138 82.0834 90.8138 82.0834L81.6597 85.5336Z" fill="#FFBE9D"/>
<path d="M97.5818 66.9843C97.2716 67.3806 96.8875 67.7131 96.4505 67.9636C95.9943 68.2703 95.5112 68.5351 95.0071 68.7548C94.435 68.9688 93.7979 69.1894 93.1347 69.4034L91.7109 69.8833L91.7889 69.8379C90.9764 70.7161 90.096 71.5293 89.1558 72.2699C89.8787 71.3234 90.6743 70.4344 91.5353 69.6109V69.5785H91.5808L92.9852 69.0856L94.8511 68.437C95.3438 68.2374 95.8218 68.0033 96.2815 67.7366C97.1007 67.3021 97.5493 66.9389 97.5818 66.9843Z" fill="#EB996E"/>
<path d="M200.235 201.699L95.2869 190.914C93.7487 190.751 92.3379 189.986 91.3632 188.788C90.3885 187.589 89.9292 186.055 90.0857 184.519L108.245 8.51898C108.473 6.33667 109.559 4.33359 111.265 2.94888C112.971 1.56418 115.158 0.910849 117.347 1.13213L217.418 11.4115C219.606 11.6389 221.614 12.7224 223.002 14.4244C224.391 16.1264 225.045 18.3081 224.824 20.491L206.619 196.492C206.46 198.025 205.699 199.432 204.503 200.408C203.307 201.384 201.773 201.848 200.235 201.699Z" fill="#FF725E"/>
<path opacity="0.4" d="M200.235 201.699L95.2869 190.914C93.7487 190.751 92.3379 189.986 91.3632 188.788C90.3885 187.589 89.9292 186.055 90.0857 184.52L108.245 8.51898C108.473 6.33667 109.559 4.33359 111.265 2.94888C112.971 1.56418 115.158 0.910849 117.347 1.13213L217.418 11.4115C219.606 11.6389 221.614 12.7224 223.002 14.4244C224.391 16.1264 225.045 18.3081 224.824 20.491L206.619 196.492C206.46 198.025 205.699 199.433 204.503 200.408C203.307 201.384 201.773 201.848 200.235 201.699Z" fill="black"/>
<path d="M189.644 200.611L84.6763 189.832C83.1367 189.668 81.7249 188.903 80.75 187.703C79.7752 186.503 79.3167 184.967 79.475 183.431L97.6794 7.43037C97.7906 6.3491 98.1143 5.3003 98.632 4.34385C99.1497 3.38741 99.8512 2.54207 100.696 1.8561C101.542 1.17014 102.514 0.657002 103.558 0.345992C104.602 0.0349828 105.698 -0.0678026 106.782 0.0435063L206.827 10.3034C207.911 10.4144 208.963 10.7373 209.921 11.2537C210.88 11.7701 211.728 12.4698 212.415 13.313C213.103 14.1561 213.617 15.1262 213.929 16.1676C214.241 17.2091 214.344 18.3017 214.232 19.3829L196.028 195.39C195.872 196.925 195.113 198.337 193.916 199.315C192.72 200.293 191.184 200.759 189.644 200.611Z" fill="#CA2E55"/>
<path d="M136.285 152.703L100.093 148.985C99.229 148.896 98.4562 149.523 98.3671 150.385L96.9005 164.591C96.8115 165.453 97.44 166.224 98.3044 166.313L134.496 170.031C135.36 170.12 136.133 169.493 136.222 168.631L137.689 154.425C137.778 153.563 137.149 152.792 136.285 152.703Z" fill="#FF725E"/>
<g opacity="0.4">
<path opacity="0.4" d="M136.284 152.713L100.094 148.985C99.2295 148.896 98.4568 149.523 98.368 150.385L96.905 164.592C96.8162 165.454 97.4449 166.225 98.3092 166.314L134.5 170.041C135.364 170.13 136.137 169.503 136.225 168.641L137.688 154.435C137.777 153.573 137.148 152.802 136.284 152.713Z" fill="black"/>
</g>
<path d="M104.964 19.7208L100.938 58.7188L200.599 68.9571L204.625 29.9592L104.964 19.7208Z" fill="#FAFAFA"/>
<path d="M200.605 68.9565C200.605 68.9565 200.605 68.7165 200.664 68.2625C200.722 67.8086 200.774 67.1276 200.859 66.2456C201.034 64.4686 201.294 61.8615 201.633 58.4955C202.283 51.7702 203.29 42.0356 204.513 29.9598L204.617 30.0895L104.955 19.888L105.143 19.7389C103.732 33.3582 102.367 46.5559 101.106 58.7355L100.963 58.5539L172.382 65.9732L193.122 68.1458L198.681 68.7425L200.118 68.8981L200.612 68.9565C200.612 68.9565 200.449 68.9565 200.131 68.9176L198.713 68.7814L193.187 68.2366L172.447 66.1548L100.93 58.8782H100.768V58.7225C102.022 46.5365 103.368 33.3582 104.786 19.7194V19.5508H104.955L204.643 29.8431H204.76V29.9598C203.459 42.0681 202.452 51.8286 201.743 58.5669C201.385 61.9133 201.093 64.514 200.917 66.278C200.82 67.1535 200.748 67.8215 200.696 68.2755L200.605 68.9565Z" fill="#263238"/>
<path d="M120.498 76.4339L106.25 74.9702C105.507 74.8939 104.843 75.4328 104.766 76.1739L103.299 90.386C103.222 91.1271 103.763 91.7898 104.506 91.8661L118.753 93.3298C119.496 93.4061 120.16 92.8672 120.237 92.1261L121.704 77.9139C121.781 77.1729 121.24 76.5102 120.498 76.4339Z" fill="#FF725E"/>
<g opacity="0.4">
<path opacity="0.4" d="M120.498 76.4378L106.25 74.9741C105.507 74.8978 104.843 75.4367 104.766 76.1778L103.299 90.3899C103.222 91.131 103.763 91.7937 104.506 91.87L118.753 93.3337C119.496 93.41 120.16 92.8711 120.237 92.13L121.704 77.9179C121.781 77.1768 121.24 76.5141 120.498 76.4378Z" fill="black"/>
</g>
<path d="M117.886 76.1683L103.638 74.7046C102.895 74.6283 102.231 75.1672 102.154 75.9083L100.687 90.1204C100.611 90.8615 101.151 91.5242 101.894 91.6005L116.141 93.0642C116.884 93.1405 117.549 92.6016 117.625 91.8605L119.092 77.6483C119.169 76.9072 118.629 76.2446 117.886 76.1683Z" fill="#263238"/>
<path d="M111.45 80.4182L110.728 87.4808L109.09 87.3121L109.681 81.5791L108.271 81.4299L108.407 80.1328L111.45 80.4182Z" fill="white"/>
<path d="M144.121 78.8675L129.873 77.4038C129.13 77.3275 128.466 77.8664 128.389 78.6075L126.922 92.8196C126.845 93.5607 127.386 94.2234 128.129 94.2997L142.376 95.7634C143.119 95.8397 143.783 95.3008 143.86 94.5597L145.327 80.3475C145.404 79.6064 144.864 78.9438 144.121 78.8675Z" fill="#FF725E"/>
<g opacity="0.4">
<path opacity="0.4" d="M144.12 78.8636L129.873 77.3999C129.13 77.3236 128.465 77.8625 128.389 78.6036L126.921 92.8157C126.845 93.5568 127.385 94.2195 128.128 94.2958L142.376 95.7595C143.119 95.8358 143.783 95.2969 143.859 94.5558L145.327 80.3437C145.403 79.6026 144.863 78.9399 144.12 78.8636Z" fill="black"/>
</g>
<path d="M141.503 78.594L127.256 77.1304C126.513 77.0541 125.849 77.593 125.772 78.3341L124.305 92.5462C124.228 93.2873 124.769 93.9499 125.511 94.0263L139.759 95.4899C140.502 95.5662 141.166 95.0273 141.243 94.2862L142.71 80.0741C142.787 79.333 142.246 78.6704 141.503 78.594Z" fill="#263238"/>
<path d="M137.033 88.8211L136.897 90.1182L131.565 89.5734L131.676 88.5163L134.66 86.2269C135.349 85.7016 135.499 85.3514 135.531 85.0077C135.59 84.4564 135.239 84.0932 134.491 84.0154C134.209 83.9757 133.922 84.0058 133.654 84.103C133.387 84.2003 133.147 84.3618 132.957 84.5731L131.845 83.6846C132.212 83.2858 132.673 82.984 133.186 82.8063C133.699 82.6286 134.248 82.5806 134.784 82.6664C136.357 82.8286 137.326 83.7365 137.189 85.0141C137.124 85.7016 136.864 86.3112 135.785 87.1154L134.004 88.4773L137.033 88.8211Z" fill="white"/>
<path d="M168.608 81.3831L154.36 79.9194C153.617 79.8431 152.953 80.382 152.877 81.1231L151.409 95.3353C151.333 96.0763 151.873 96.739 152.616 96.8153L166.863 98.279C167.606 98.3553 168.271 97.8164 168.347 97.0753L169.815 82.8632C169.891 82.1221 169.351 81.4594 168.608 81.3831Z" fill="#FF725E"/>
<g opacity="0.4">
<path opacity="0.4" d="M168.607 81.3871L154.36 79.9198C153.617 79.8433 152.953 80.382 152.877 81.1232L151.413 95.3357C151.337 96.0768 151.877 96.7396 152.62 96.8161L166.867 98.2834C167.61 98.3599 168.274 97.8211 168.35 97.08L169.814 82.8675C169.891 82.1264 169.35 81.4636 168.607 81.3871Z" fill="black"/>
</g>
<path d="M165.997 81.1097L151.75 79.646C151.007 79.5697 150.342 80.1086 150.266 80.8497L148.798 95.0618C148.722 95.8029 149.262 96.4655 150.005 96.5419L164.253 98.0055C164.996 98.0819 165.66 97.543 165.736 96.8019L167.204 82.5897C167.28 81.8487 166.74 81.186 165.997 81.1097Z" fill="#263238"/>
<path d="M161.55 90.5012C161.427 91.6881 160.4 92.6803 158.391 92.4793C157.442 92.3942 156.538 92.0359 155.79 91.4481L156.551 90.2613C157.096 90.7403 157.778 91.0354 158.501 91.1044C159.32 91.1887 159.86 90.9098 159.919 90.3326C159.977 89.7554 159.613 89.4312 158.69 89.3339L157.942 89.256L158.053 88.1795L159.671 86.6878L156.668 86.383L156.804 85.0859L161.745 85.5918L161.635 86.6489L159.854 88.2962C160.367 88.375 160.829 88.6483 161.146 89.0591C161.462 89.4698 161.607 89.9864 161.55 90.5012Z" fill="white"/>
<path d="M193.102 83.9026L178.854 82.439C178.112 82.3627 177.447 82.9016 177.371 83.6426L175.903 97.8548C175.827 98.5959 176.367 99.2585 177.11 99.3348L191.358 100.799C192.101 100.875 192.765 100.336 192.841 99.5948L194.309 85.3827C194.385 84.6416 193.845 83.979 193.102 83.9026Z" fill="#FF725E"/>
<g opacity="0.4">
<path opacity="0.4" d="M193.103 83.8987L178.855 82.4351C178.112 82.3587 177.448 82.8976 177.371 83.6387L175.904 97.8509C175.827 98.592 176.368 99.2546 177.111 99.3309L191.358 100.795C192.101 100.871 192.765 100.332 192.842 99.5909L194.309 85.3788C194.386 84.6377 193.845 83.9751 193.103 83.8987Z" fill="black"/>
</g>
<path d="M190.543 83.6253L176.295 82.1616C175.552 82.0853 174.888 82.6242 174.812 83.3653L173.344 97.5774C173.268 98.3185 173.808 98.9812 174.551 99.0575L188.799 100.521C189.541 100.597 190.206 100.059 190.282 99.3175L191.75 85.1054C191.826 84.3643 191.286 83.7016 190.543 83.6253Z" fill="#263238"/>
<path d="M178.71 90.351L178.644 90.9961L186.21 91.7734L186.277 91.1283L178.71 90.351Z" fill="white"/>
<path d="M184.04 87.906C184.015 88.1485 183.919 88.3783 183.764 88.5665C183.609 88.7546 183.401 88.8925 183.167 88.9628C182.933 89.0332 182.683 89.0327 182.45 88.9615C182.216 88.8903 182.009 88.7515 181.854 88.5628C181.699 88.3741 181.604 88.1438 181.581 87.9012C181.557 87.6586 181.607 87.4145 181.722 87.1998C181.838 86.9851 182.015 86.8094 182.231 86.695C182.446 86.5806 182.691 86.5326 182.934 86.557C183.26 86.5898 183.56 86.7502 183.767 87.0032C183.974 87.2562 184.072 87.5809 184.04 87.906Z" fill="white"/>
<path d="M183.356 94.4926C183.332 94.7353 183.236 94.9653 183.08 95.1535C182.924 95.3416 182.716 95.4794 182.482 95.5494C182.247 95.6194 181.998 95.6184 181.764 95.5466C181.53 95.4748 181.323 95.3353 181.169 95.146C181.014 94.9566 180.92 94.7258 180.897 94.4829C180.875 94.24 180.925 93.9958 181.042 93.7813C181.158 93.5669 181.336 93.3918 181.553 93.2783C181.769 93.1647 182.014 93.1179 182.258 93.1436C182.582 93.1779 182.88 93.3391 183.086 93.5919C183.292 93.8447 183.389 94.1685 183.356 94.4926Z" fill="white"/>
<path d="M117.942 101.196L103.695 99.7319C102.952 99.6556 102.288 100.195 102.211 100.936L100.744 115.148C100.667 115.889 101.207 116.551 101.95 116.628L116.198 118.091C116.941 118.168 117.605 117.629 117.682 116.888L119.149 102.676C119.226 101.935 118.685 101.272 117.942 101.196Z" fill="#FF725E"/>
<g opacity="0.4">
<path opacity="0.4" d="M117.942 101.192L103.695 99.728C102.952 99.6517 102.288 100.191 102.211 100.932L100.744 115.144C100.667 115.885 101.207 116.548 101.95 116.624L116.198 118.088C116.941 118.164 117.605 117.625 117.682 116.884L119.149 102.672C119.226 101.931 118.685 101.268 117.942 101.192Z" fill="black"/>
</g>
<path d="M115.331 100.93L101.083 99.4663C100.341 99.39 99.6763 99.9289 99.5997 100.67L98.1324 114.882C98.0559 115.623 98.5962 116.286 99.3391 116.362L113.587 117.826C114.33 117.902 114.994 117.363 115.07 116.622L116.538 102.41C116.614 101.669 116.074 101.006 115.331 100.93Z" fill="#263238"/>
<path d="M110.383 110.946L109.232 110.829L109.076 112.308L107.483 112.146L107.639 110.667L103.836 110.272L103.946 109.175L107.737 105.051L109.453 105.232L105.929 109.124L107.828 109.318L107.964 108.021L109.505 108.177L109.369 109.474L110.52 109.591L110.383 110.946Z" fill="white"/>
<path d="M141.565 103.621L127.318 102.158C126.575 102.081 125.911 102.62 125.834 103.361L124.367 117.574C124.29 118.315 124.831 118.977 125.573 119.054L139.821 120.517C140.564 120.594 141.228 120.055 141.305 119.314L142.772 105.101C142.849 104.36 142.308 103.698 141.565 103.621Z" fill="#FF725E"/>
<g opacity="0.4">
<path opacity="0.4" d="M141.565 103.625L127.318 102.158C126.575 102.082 125.911 102.62 125.835 103.361L124.371 117.574C124.295 118.315 124.835 118.978 125.578 119.054L139.825 120.522C140.568 120.598 141.232 120.059 141.309 119.318L142.772 105.106C142.849 104.365 142.308 103.702 141.565 103.625Z" fill="black"/>
</g>
<path d="M138.955 103.348L124.707 101.884C123.964 101.808 123.3 102.347 123.223 103.088L121.756 117.3C121.679 118.041 122.22 118.704 122.963 118.78L137.21 120.244C137.953 120.32 138.617 119.781 138.694 119.04L140.161 104.828C140.238 104.087 139.697 103.424 138.955 103.348Z" fill="#263238"/>
<path d="M133.789 112.614C133.665 113.859 132.632 114.851 130.616 114.644C129.668 114.557 128.765 114.199 128.016 113.612L128.789 112.432C129.333 112.912 130.017 113.205 130.74 113.269C131.559 113.353 132.099 113.068 132.157 112.49C132.216 111.913 131.891 111.537 130.61 111.407L128.802 111.219L129.576 107.328L133.88 107.769L133.75 109.066L130.805 108.761L130.551 110.091L131.13 110.149C133.191 110.344 133.919 111.362 133.789 112.614Z" fill="white"/>
<path d="M166.06 106.133L151.812 104.669C151.069 104.593 150.405 105.132 150.328 105.873L148.861 120.085C148.784 120.826 149.325 121.489 150.068 121.565L164.315 123.029C165.058 123.105 165.722 122.566 165.799 121.825L167.266 107.613C167.343 106.872 166.802 106.209 166.06 106.133Z" fill="#FF725E"/>
<g opacity="0.4">
<path opacity="0.4" d="M166.06 106.137L151.812 104.673C151.069 104.597 150.405 105.136 150.328 105.877L148.861 120.089C148.784 120.83 149.325 121.493 150.068 121.569L164.315 123.033C165.058 123.109 165.722 122.57 165.799 121.829L167.266 107.617C167.343 106.876 166.802 106.213 166.06 106.137Z" fill="black"/>
</g>
<path d="M163.442 105.867L149.195 104.404C148.452 104.327 147.788 104.866 147.711 105.607L146.244 119.82C146.167 120.561 146.707 121.223 147.45 121.3L161.698 122.763C162.441 122.84 163.105 122.301 163.182 121.56L164.649 107.348C164.726 106.606 164.185 105.944 163.442 105.867Z" fill="#263238"/>
<path d="M158.794 115.167C158.644 116.607 157.37 117.392 155.881 117.236C153.931 117.035 152.851 115.692 153.085 113.423C153.339 110.984 154.951 109.778 157.077 109.998C157.767 110.051 158.43 110.288 158.995 110.686L158.267 111.821C157.893 111.53 157.44 111.358 156.967 111.328C155.783 111.211 154.958 111.827 154.769 113.17C155.026 112.979 155.318 112.842 155.628 112.765C155.938 112.688 156.261 112.674 156.577 112.722C156.887 112.725 157.193 112.793 157.477 112.92C157.76 113.047 158.013 113.231 158.222 113.461C158.43 113.69 158.588 113.961 158.687 114.254C158.785 114.548 158.821 114.859 158.794 115.167ZM157.201 115.083C157.218 114.932 157.202 114.779 157.154 114.635C157.107 114.491 157.029 114.359 156.927 114.247C156.824 114.135 156.698 114.046 156.558 113.987C156.418 113.928 156.267 113.899 156.115 113.903C155.966 113.871 155.811 113.87 155.661 113.901C155.512 113.931 155.37 113.992 155.245 114.08C155.12 114.167 155.014 114.28 154.934 114.41C154.855 114.54 154.803 114.685 154.782 114.836C154.717 115.44 155.127 115.926 155.913 116.01C156.059 116.04 156.208 116.039 156.353 116.008C156.498 115.976 156.634 115.915 156.754 115.827C156.873 115.74 156.973 115.629 157.047 115.5C157.12 115.372 157.166 115.23 157.181 115.083H157.201Z" fill="white"/>
<path d="M190.541 108.653L176.293 107.189C175.551 107.113 174.886 107.652 174.81 108.393L173.342 122.605C173.266 123.346 173.806 124.009 174.549 124.085L188.797 125.549C189.54 125.625 190.204 125.086 190.28 124.345L191.748 110.133C191.824 109.392 191.284 108.729 190.541 108.653Z" fill="#FF725E"/>
<g opacity="0.4">
<path opacity="0.4" d="M190.54 108.657L176.293 107.189C175.55 107.113 174.886 107.652 174.81 108.393L173.346 122.605C173.27 123.346 173.81 124.009 174.553 124.086L188.8 125.553C189.543 125.629 190.207 125.091 190.284 124.35L191.747 110.137C191.824 109.396 191.283 108.733 190.54 108.657Z" fill="black"/>
</g>
<path d="M187.93 108.379L173.683 106.916C172.94 106.839 172.275 107.378 172.199 108.119L170.732 122.331C170.655 123.072 171.195 123.735 171.938 123.811L186.186 125.275C186.929 125.351 187.593 124.812 187.669 124.071L189.137 109.859C189.213 109.118 188.673 108.456 187.93 108.379Z" fill="#263238"/>
<path d="M182.713 113.497L176.74 118.195L177.142 118.705L183.115 114.006L182.713 113.497Z" fill="white"/>
<path d="M177.787 112.978L177.282 113.387L182.082 119.274L182.586 118.864L177.787 112.978Z" fill="white"/>
<path d="M115.408 125.746L101.161 124.283C100.418 124.206 99.7534 124.745 99.6769 125.486L98.2096 139.699C98.1331 140.44 98.6733 141.102 99.4163 141.179L113.664 142.642C114.407 142.719 115.071 142.18 115.148 141.439L116.615 127.226C116.691 126.485 116.151 125.823 115.408 125.746Z" fill="#FF725E"/>
<g opacity="0.4">
<path opacity="0.4" d="M115.408 125.75L101.161 124.283C100.418 124.207 99.7536 124.745 99.6772 125.486L98.2135 139.699C98.1372 140.44 98.6776 141.103 99.4205 141.179L113.668 142.647C114.411 142.723 115.075 142.184 115.151 141.443L116.615 127.231C116.691 126.49 116.151 125.827 115.408 125.75Z" fill="black"/>
</g>
<path d="M112.796 125.485L98.5488 124.021C97.8059 123.945 97.1416 124.484 97.0651 125.225L95.5978 139.437C95.5213 140.178 96.0615 140.841 96.8044 140.917L111.052 142.381C111.795 142.457 112.459 141.918 112.536 141.177L114.003 126.965C114.08 126.224 113.539 125.561 112.796 125.485Z" fill="#263238"/>
<path d="M107.484 129.835L107.373 130.892L104.122 136.612L102.347 136.424L105.468 130.97L103.128 130.73L103.011 131.878L101.554 131.729L101.814 129.258L107.484 129.835Z" fill="white"/>
<path d="M139.031 128.172L124.784 126.709C124.041 126.632 123.376 127.171 123.3 127.912L121.833 142.124C121.756 142.865 122.296 143.528 123.039 143.604L137.287 145.068C138.03 145.144 138.694 144.605 138.771 143.864L140.238 129.652C140.314 128.911 139.774 128.249 139.031 128.172Z" fill="#FF725E"/>
<g opacity="0.4">
<path opacity="0.4" d="M139.031 128.176L124.784 126.712C124.041 126.636 123.376 127.175 123.3 127.916L121.833 142.128C121.756 142.869 122.296 143.532 123.039 143.608L137.287 145.072C138.03 145.148 138.694 144.609 138.771 143.868L140.238 129.656C140.314 128.915 139.774 128.252 139.031 128.176Z" fill="black"/>
</g>
<path d="M136.414 127.903L122.166 126.439C121.424 126.363 120.759 126.902 120.683 127.643L119.215 141.855C119.139 142.596 119.679 143.259 120.422 143.335L134.67 144.799C135.413 144.875 136.077 144.336 136.153 143.595L137.621 129.383C137.697 128.642 137.157 127.979 136.414 127.903Z" fill="#263238"/>
<path d="M131.812 137.417C131.675 138.715 130.401 139.46 128.607 139.272C126.812 139.084 125.727 138.131 125.863 136.808C125.894 136.456 126.028 136.121 126.249 135.845C126.47 135.57 126.768 135.365 127.105 135.258C126.869 135.083 126.684 134.848 126.569 134.578C126.455 134.308 126.415 134.012 126.455 133.721C126.585 132.482 127.755 131.827 129.374 131.989C130.993 132.151 132.027 133.046 131.903 134.285C131.877 134.579 131.772 134.86 131.599 135.1C131.426 135.34 131.192 135.528 130.921 135.647C131.228 135.822 131.476 136.083 131.635 136.398C131.793 136.713 131.855 137.068 131.812 137.417ZM130.161 137.197C130.226 136.548 129.751 136.14 128.938 136.056C128.126 135.971 127.586 136.302 127.521 136.925C127.456 137.547 127.918 137.995 128.73 138.079C129.543 138.163 130.102 137.794 130.187 137.171L130.161 137.197ZM128.054 133.954C127.996 134.486 128.386 134.862 129.049 134.934C129.712 135.005 130.193 134.713 130.252 134.181C130.31 133.649 129.901 133.247 129.231 133.183C128.561 133.118 128.106 133.384 128.054 133.935V133.954Z" fill="white"/>
<path d="M163.519 130.692L149.271 129.228C148.529 129.152 147.864 129.691 147.788 130.432L146.32 144.644C146.244 145.385 146.784 146.048 147.527 146.124L161.775 147.588C162.518 147.664 163.182 147.125 163.258 146.384L164.726 132.172C164.802 131.431 164.262 130.768 163.519 130.692Z" fill="#FF725E"/>
<g opacity="0.4">
<path opacity="0.4" d="M163.519 130.688L149.271 129.224C148.529 129.148 147.864 129.687 147.788 130.428L146.32 144.64C146.244 145.381 146.784 146.044 147.527 146.12L161.775 147.584C162.518 147.66 163.182 147.121 163.258 146.38L164.726 132.168C164.802 131.427 164.262 130.764 163.519 130.688Z" fill="black"/>
</g>
<path d="M160.431 129.282L146.251 127.854C145.512 127.779 144.852 128.317 144.777 129.054L143.345 143.199C143.27 143.936 143.809 144.595 144.549 144.669L158.728 146.098C159.468 146.172 160.128 145.635 160.202 144.897L161.635 130.753C161.709 130.015 161.17 129.357 160.431 129.282Z" fill="#263238"/>
<path d="M156.193 138.247C155.939 140.685 154.34 141.892 152.201 141.671C151.516 141.621 150.857 141.386 150.296 140.99L151.024 139.855C151.397 140.147 151.851 140.317 152.324 140.342C153.495 140.458 154.333 139.842 154.522 138.493C154.264 138.685 153.97 138.824 153.657 138.902C153.345 138.98 153.02 138.995 152.701 138.947C152.392 138.941 152.088 138.872 151.807 138.744C151.526 138.616 151.274 138.431 151.067 138.202C150.861 137.973 150.704 137.704 150.605 137.411C150.507 137.119 150.471 136.81 150.497 136.502C150.647 135.063 151.921 134.278 153.417 134.434C155.361 134.635 156.433 135.977 156.193 138.247ZM154.496 136.833C154.554 136.23 154.145 135.744 153.371 135.659C153.225 135.631 153.074 135.634 152.929 135.667C152.784 135.7 152.648 135.764 152.528 135.853C152.409 135.942 152.31 136.055 152.237 136.185C152.165 136.314 152.12 136.458 152.107 136.606C152.093 136.754 152.11 136.903 152.158 137.044C152.206 137.184 152.282 137.314 152.383 137.423C152.484 137.532 152.606 137.62 152.743 137.679C152.88 137.738 153.027 137.768 153.176 137.767C153.325 137.799 153.479 137.799 153.629 137.769C153.778 137.738 153.919 137.677 154.044 137.59C154.169 137.502 154.274 137.389 154.353 137.259C154.431 137.129 154.482 136.984 154.502 136.833H154.496Z" fill="white"/>
<path d="M188.006 133.203L173.759 131.74C173.016 131.663 172.352 132.202 172.275 132.943L170.808 147.156C170.731 147.897 171.271 148.559 172.014 148.636L186.262 150.099C187.005 150.176 187.669 149.637 187.746 148.896L189.213 134.683C189.29 133.942 188.749 133.28 188.006 133.203Z" fill="#FF725E"/>
<g opacity="0.4">
<path opacity="0.4" d="M188.006 133.207L173.759 131.74C173.016 131.664 172.352 132.202 172.276 132.943L170.812 147.156C170.736 147.897 171.276 148.56 172.019 148.636L186.266 150.104C187.009 150.18 187.673 149.641 187.75 148.9L189.213 134.688C189.29 133.947 188.749 133.284 188.006 133.207Z" fill="black"/>
</g>
<path d="M185.395 132.934L171.148 131.47C170.405 131.394 169.741 131.933 169.664 132.674L168.197 146.886C168.12 147.627 168.661 148.29 169.404 148.366L183.651 149.83C184.394 149.906 185.058 149.367 185.135 148.626L186.602 134.414C186.679 133.673 186.138 133.01 185.395 132.934Z" fill="#263238"/>
<path d="M173.651 139.953L173.584 140.598L181.151 141.375L181.217 140.73L173.651 139.953Z" fill="white"/>
<path d="M160.963 155.461L146.715 153.998C145.972 153.921 145.308 154.46 145.232 155.201L143.764 169.413C143.688 170.154 144.228 170.817 144.971 170.893L159.218 172.357C159.961 172.433 160.626 171.895 160.702 171.153L162.17 156.941C162.246 156.2 161.706 155.538 160.963 155.461Z" fill="#FF725E"/>
<g opacity="0.4">
<path opacity="0.4" d="M160.962 155.465L146.715 153.998C145.972 153.921 145.308 154.46 145.232 155.201L143.768 169.414C143.692 170.155 144.232 170.818 144.975 170.894L159.222 172.362C159.965 172.438 160.629 171.899 160.705 171.158L162.169 156.946C162.246 156.205 161.705 155.542 160.962 155.465Z" fill="black"/>
</g>
<path d="M158.345 155.188L144.098 153.724C143.355 153.648 142.69 154.187 142.614 154.928L141.147 169.14C141.07 169.881 141.61 170.544 142.353 170.62L156.601 172.084C157.344 172.16 158.008 171.621 158.085 170.88L159.552 156.668C159.628 155.927 159.088 155.264 158.345 155.188Z" fill="#263238"/>
<path d="M185.45 157.977L171.203 156.513C170.46 156.437 169.795 156.976 169.719 157.717L168.252 171.929C168.175 172.67 168.715 173.333 169.458 173.409L183.706 174.873C184.449 174.949 185.113 174.41 185.19 173.669L186.657 159.457C186.733 158.716 186.193 158.053 185.45 157.977Z" fill="#FF725E"/>
<g opacity="0.4">
<path opacity="0.4" d="M185.451 157.981L171.203 156.517C170.46 156.441 169.796 156.98 169.719 157.721L168.252 171.933C168.176 172.674 168.716 173.337 169.459 173.413L183.706 174.877C184.449 174.953 185.113 174.414 185.19 173.673L186.657 159.461C186.734 158.72 186.194 158.057 185.451 157.981Z" fill="black"/>
</g>
<path d="M182.839 157.703L168.592 156.24C167.849 156.163 167.185 156.702 167.108 157.443L165.641 171.656C165.564 172.397 166.104 173.059 166.847 173.136L181.095 174.599C181.838 174.676 182.502 174.137 182.579 173.396L184.046 159.183C184.123 158.442 183.582 157.78 182.839 157.703Z" fill="#FFC233"/>
<path d="M171.192 163.804L171.125 164.449L178.692 165.227L178.759 164.581L171.192 163.804Z" fill="white"/>
<path d="M170.9 166.671L170.833 167.316L178.4 168.094L178.466 167.449L170.9 166.671Z" fill="white"/>
<path d="M133.054 152.371L95.3947 148.502C94.5017 148.41 93.7033 149.058 93.6113 149.949L92.1553 164.051C92.0634 164.942 92.7127 165.738 93.6057 165.83L131.265 169.699C132.158 169.791 132.956 169.143 133.048 168.252L134.504 154.15C134.596 153.259 133.947 152.463 133.054 152.371Z" fill="#263238"/>
<path d="M111.801 158.612C112.041 156.284 113.472 155.104 115.208 155.279C116.943 155.454 118.094 156.907 117.854 159.235C117.613 161.563 116.196 162.743 114.453 162.562C112.711 162.38 111.56 160.934 111.801 158.612ZM116.209 159.066C116.378 157.464 115.877 156.744 115.065 156.66C114.252 156.576 113.621 157.179 113.459 158.781C113.296 160.383 113.79 161.103 114.596 161.187C115.403 161.271 116.046 160.662 116.209 159.066Z" fill="white"/>
<path d="M150.468 159.097L149.577 166.633L150.222 166.709L151.114 159.173L150.468 159.097Z" fill="white"/>
<path d="M146.603 162.203L146.536 162.848L154.103 163.625L154.17 162.98L146.603 162.203Z" fill="white"/>
<path d="M143.06 43.5313L141.974 54.0571L141.474 54.0052L142.54 43.9464L139.887 43.674L139.933 43.207L143.06 43.5313Z" fill="#263238"/>
<path d="M151.733 54.5942L151.681 55.0611L144.529 54.3283L144.568 53.9651L149.561 49.8858C150.992 48.7249 151.336 47.9855 151.427 47.1295C151.57 45.7286 150.686 44.7299 148.827 44.5353C148.242 44.4304 147.642 44.4601 147.07 44.6219C146.499 44.7837 145.972 45.0735 145.531 45.4692L145.218 45.106C145.716 44.6734 146.303 44.356 146.939 44.1766C147.574 43.9972 148.241 43.9603 148.892 44.0684C150.907 44.2759 152.084 45.4433 151.909 47.1424C151.805 48.1412 151.401 48.9778 149.867 50.2165L145.316 53.9326L151.733 54.5942Z" fill="#263238"/>
<path d="M160.094 52.9743C159.912 54.7254 158.553 55.8279 156.232 55.5685C155.548 55.5319 154.88 55.349 154.273 55.0324C153.667 54.7157 153.135 54.2726 152.715 53.7331L153.027 53.4024C153.414 53.9029 153.905 54.3139 154.466 54.6072C155.027 54.9005 155.645 55.0692 156.278 55.1016C158.293 55.3091 159.45 54.453 159.613 52.9095C159.776 51.366 158.846 50.3153 156.609 50.0624L156.024 49.9976L156.063 49.6409L159.789 45.7042L153.97 45.1076L154.015 44.6406L160.517 45.2892L160.478 45.6459L156.733 49.5955C159.177 49.8678 160.276 51.2168 160.094 52.9743Z" fill="#263238"/>
<path d="M170.497 53.919L168.202 53.6856L167.89 56.7272L167.389 56.6753L167.701 53.6337L161.642 52.9851L161.681 52.622L168.254 46.0977L168.839 46.156L162.337 52.6025L167.74 53.1602L168.013 50.4818L168.514 50.5337L168.234 53.2056L170.529 53.4456L170.497 53.919Z" fill="#263238"/>
<path d="M172.687 56.7558C172.657 56.9443 172.607 57.129 172.538 57.307L171.784 59.2527L171.394 59.2137L172.076 57.1838C171.945 57.1623 171.828 57.0898 171.751 56.9821C171.673 56.8745 171.642 56.7406 171.663 56.6099C171.685 56.4791 171.758 56.3623 171.866 56.2851C171.973 56.2078 172.108 56.1765 172.239 56.198C172.372 56.2143 172.493 56.2817 172.577 56.3859C172.661 56.4901 172.7 56.6228 172.687 56.7558Z" fill="#263238"/>
<path d="M183.142 55.2199L180.854 54.9864L180.541 58.0216L180.041 57.9697L180.353 54.9345L174.293 54.286L174.332 53.9228L180.899 47.418L181.484 47.4828L174.983 53.9293L180.385 54.4806L180.658 51.8021L181.159 51.854L180.899 54.5324L183.194 54.7659L183.142 55.2199Z" fill="#263238"/>
<path d="M190.983 56.0896C190.801 57.8017 189.474 59.0015 187.082 58.7551C186.401 58.7161 185.737 58.5321 185.133 58.2156C184.53 57.899 184.002 57.4571 183.584 56.9197L183.909 56.5889C184.294 57.0914 184.784 57.5038 185.346 57.7973C185.908 58.0908 186.527 58.2583 187.16 58.2881C189.221 58.5021 190.346 57.5228 190.502 56.0312C190.671 54.4098 189.799 53.3462 186.783 53.0349L184.735 52.8274L185.775 47.918L191.217 48.4822L191.171 48.9491L186.146 48.4303L185.281 52.4123L186.906 52.581C190.131 52.9117 191.171 54.2218 190.983 56.0896Z" fill="#263238"/>
<path d="M75.6521 271.777L71.5171 287.024L84.9558 288.244L87.7775 273.729L75.6521 271.777Z" fill="#4D7298"/>
<path d="M85.3262 287.004C84.6756 287.05 84.0219 287.029 83.3758 286.939C82.1665 286.842 80.5021 286.654 78.6622 286.42L73.968 285.772C73.3085 285.722 72.6553 285.609 72.0176 285.434C72.6687 285.397 73.322 285.423 73.968 285.512C75.1773 285.609 76.8417 285.798 78.6817 286.031L83.3758 286.68C84.034 286.732 84.6865 286.841 85.3262 287.004Z" fill="#263238"/>
<g opacity="0.6">
<path opacity="0.6" d="M71.5171 287.021L84.9558 288.241L85.1703 287.125L71.9072 285.445L71.5366 286.866" fill="white"/>
</g>
<path d="M78.1748 286.339C78.9297 282.424 79.8845 278.549 81.0355 274.73C80.7047 276.697 80.2707 278.646 79.7352 280.567C79.3154 282.517 78.7946 284.444 78.1748 286.339Z" fill="#263238"/>
<path d="M84.6043 286.906C84.8153 285.973 84.8153 285.005 84.6043 284.072C84.3684 283.07 83.86 282.152 83.135 281.42C82.231 280.54 81.051 279.997 79.7932 279.883C78.5373 279.753 77.2736 280.04 76.1978 280.7C75.3247 281.253 74.6048 282.015 74.1043 282.918C73.659 283.765 73.3705 284.686 73.2526 285.635C73.2439 285.569 73.2439 285.501 73.2526 285.434C73.2501 285.241 73.2609 285.048 73.2851 284.857C73.3787 284.143 73.5988 283.451 73.9353 282.814C74.429 281.856 75.1638 281.043 76.0678 280.453C77.1938 279.743 78.5269 279.433 79.8517 279.571C81.1802 279.692 82.4245 280.273 83.369 281.212C84.1171 281.991 84.6307 282.964 84.8514 284.02C84.9968 284.726 84.9968 285.455 84.8514 286.161C84.8096 286.351 84.7531 286.537 84.6823 286.718C84.6651 286.784 84.6388 286.848 84.6043 286.906Z" fill="#263238"/>
<path d="M131.078 270.038L130.278 282.042C130.278 282.042 142.254 286.005 142.325 288.236L118.92 288.404L119.395 269.648L131.078 270.038Z" fill="#4D7298"/>
<g opacity="0.6">
<path opacity="0.6" d="M123.074 280.815C122.847 280.877 122.65 281.02 122.522 281.218C122.394 281.415 122.343 281.652 122.378 281.885C122.431 282.114 122.571 282.315 122.768 282.444C122.966 282.573 123.206 282.621 123.438 282.579C123.678 282.512 123.885 282.359 124.019 282.15C124.153 281.94 124.206 281.689 124.166 281.444C124.086 281.211 123.919 281.019 123.699 280.906C123.48 280.794 123.226 280.77 122.989 280.841" fill="white"/>
</g>
<g opacity="0.6">
<path opacity="0.6" d="M118.92 288.417L119.043 286.523L141.578 287.172C141.816 287.295 142.02 287.474 142.171 287.695C142.322 287.916 142.415 288.171 142.443 288.437L118.92 288.417Z" fill="white"/>
</g>
<path d="M130.661 281.937C130.661 282.054 130.083 282.086 129.504 282.436C128.925 282.787 128.62 283.254 128.516 283.208C128.412 283.163 128.6 282.508 129.303 282.093C130.005 281.678 130.687 281.833 130.661 281.937Z" fill="#263238"/>
<path d="M133.08 283.029C133.08 283.139 132.606 283.315 132.203 283.788C131.8 284.261 131.669 284.761 131.552 284.754C131.435 284.748 131.383 284.106 131.897 283.522C132.411 282.938 133.087 282.919 133.08 283.029Z" fill="#263238"/>
<path d="M134.387 285.995C134.283 285.995 134.14 285.438 134.452 284.828C134.764 284.218 135.31 283.978 135.356 284.076C135.401 284.173 135.057 284.497 134.81 285.003C134.563 285.509 134.504 285.989 134.387 285.995Z" fill="#263238"/>
<path d="M130.538 279.18C130.486 279.284 129.966 279.109 129.322 279.135C128.679 279.161 128.165 279.349 128.107 279.245C128.048 279.141 128.549 278.758 129.309 278.739C130.07 278.72 130.597 279.096 130.538 279.18Z" fill="#263238"/>
<g opacity="0.3">
<path opacity="0.3" d="M130.915 272.42L130.772 274.56L119.277 274.106L119.323 272.18L130.915 272.42Z" fill="black"/>
</g>
<path d="M130.655 276.757C130.269 276.848 129.864 276.835 129.485 276.718C129.064 276.629 128.656 276.49 128.269 276.303C128.043 276.194 127.826 276.068 127.619 275.927C127.488 275.852 127.372 275.756 127.274 275.641C127.201 275.558 127.158 275.453 127.152 275.342C127.146 275.231 127.178 275.122 127.242 275.032C127.302 274.955 127.379 274.893 127.467 274.851C127.555 274.808 127.651 274.786 127.749 274.785C127.897 274.788 128.044 274.814 128.185 274.863C128.433 274.93 128.675 275.021 128.906 275.135C129.297 275.324 129.655 275.573 129.966 275.875C130.493 276.394 130.668 276.822 130.616 276.841C130.564 276.86 130.311 276.517 129.771 276.082C129.457 275.833 129.112 275.625 128.744 275.466C128.534 275.372 128.316 275.296 128.094 275.239C127.846 275.168 127.638 275.155 127.567 275.239C127.495 275.323 127.567 275.297 127.567 275.369C127.642 275.451 127.727 275.523 127.82 275.583C128.024 275.721 128.226 275.844 128.425 275.953C128.783 276.142 129.157 276.299 129.543 276.419C129.921 276.509 130.292 276.621 130.655 276.757Z" fill="#263238"/>
<path d="M130.499 276.919C130.292 276.576 130.197 276.177 130.226 275.778C130.214 275.094 130.394 274.42 130.746 273.832C130.813 273.68 130.918 273.547 131.051 273.447C131.184 273.347 131.341 273.283 131.507 273.262C131.612 273.266 131.713 273.301 131.799 273.362C131.884 273.423 131.95 273.508 131.988 273.605C132.043 273.743 132.081 273.887 132.098 274.033C132.139 274.384 132.11 274.739 132.013 275.079C131.916 275.418 131.753 275.735 131.533 276.012C131.058 276.608 130.577 276.725 130.57 276.66C130.564 276.595 130.941 276.394 131.305 275.823C131.517 275.496 131.654 275.126 131.708 274.74C131.741 274.515 131.741 274.285 131.708 274.059C131.708 273.813 131.591 273.612 131.5 273.631C131.409 273.651 131.181 273.807 131.077 274.001C130.957 274.209 130.853 274.426 130.765 274.65C130.625 275.02 130.538 275.409 130.505 275.804C130.453 276.472 130.564 276.9 130.499 276.919Z" fill="#263238"/>
<path d="M80.3268 83.0161C80.3268 83.0161 77.7847 96.83 75.7757 105.19C74.1894 111.675 70.0934 123.855 77.5116 127.389C84.9299 130.924 94.8773 116.649 94.8773 116.649L99.1098 84.1316C96.1646 84.6829 92.8228 88.0942 89.2664 93.1074L89.9166 80.7852L80.3268 83.0161Z" fill="#FFC233"/>
<path d="M182.414 103.445L178.513 105.3L174.917 99.6767L177.017 95.3379C177.219 94.9359 177.434 94.4884 177.668 93.9695C177.928 93.3621 178.084 92.7153 178.129 92.0563C178.22 91.2446 178.2 90.4243 178.071 89.6178C177.876 88.8915 178.643 88.3208 179.163 88.7229C179.683 89.1249 180.268 91.1224 179.885 93.5156C179.501 95.9087 182.284 93.3729 183.317 92.4649C184.351 91.557 187.674 88.9109 188.2 89.0147C188.961 89.1639 188.941 90.0329 187.888 90.9084C186.835 91.784 183.864 94.657 184.351 95.1888C184.96 95.2572 185.533 95.5132 185.99 95.9211C186.447 96.329 186.765 96.8687 186.9 97.4652C187.16 98.639 187.374 100.267 186.711 100.805C185.337 101.776 183.902 102.658 182.414 103.445Z" fill="#FFBE9D"/>
<path d="M106.782 51.0244L106.678 84.8198L121.202 85.5332L121.625 77.3162C121.625 77.3162 126.787 78.3409 128.126 73.5546C128.978 70.5 128.776 46.8867 128.776 46.8867L106.782 51.0244Z" fill="#FFBE9D"/>
<path d="M132.04 50.1926C131.058 52.2095 126.396 55.9062 126.396 55.9062L124.29 61.5355C122.463 60.1087 120.005 60.1931 119.544 63.3968C119.206 65.7186 122.092 66.1856 122.092 66.1856C120.408 69.0391 119.271 71.3739 116.826 74.0588C114.173 77.0032 112.691 77.3015 109.817 77.3469H106.645C106.645 77.3469 100.143 71.9381 101.443 57.7027C102.744 43.4672 115.558 47.6244 118.621 44.0833C123.607 38.2724 135.31 43.4543 132.04 50.1926Z" fill="#263238"/>
<path d="M102.165 69.6042H102.568C102.955 69.5973 103.34 69.5539 103.719 69.4745C105.109 69.159 106.393 68.4885 107.444 67.5289C108.952 66.0517 110.224 64.3522 111.215 62.4898C111.865 61.4716 112.476 60.3885 113.257 59.3444C114.042 58.2471 115.007 57.2891 116.111 56.5102C117.246 55.7768 118.5 55.2437 119.817 54.9343C121.078 54.61 122.32 54.409 123.49 54.182C125.831 53.7475 127.931 53.0989 129.341 51.9899C130.496 51.1473 131.332 49.9409 131.715 48.5656C131.807 48.192 131.855 47.8089 131.858 47.4242C131.858 47.1583 131.858 47.0156 131.858 47.0156C131.858 47.0156 131.858 47.1583 131.903 47.4242C131.912 47.8123 131.872 48.2 131.786 48.5786C131.416 49.9755 130.582 51.2058 129.42 52.0677C127.976 53.1962 125.857 53.8642 123.516 54.2987C122.339 54.5322 121.104 54.7332 119.849 55.064C118.548 55.3725 117.308 55.8988 116.182 56.6205C115.096 57.3954 114.143 58.3417 113.361 59.4222C112.587 60.4598 111.943 61.5364 111.326 62.5546C110.323 64.4231 109.035 66.1252 107.509 67.6003C106.444 68.5693 105.141 69.2405 103.732 69.5459C103.349 69.6207 102.959 69.6576 102.568 69.6561C102.302 69.6237 102.165 69.6042 102.165 69.6042Z" fill="#FFC233"/>
<path d="M101.418 58.0283C101.418 58.0283 101.646 57.9375 102.068 57.7948C102.715 57.5677 103.384 57.4091 104.064 57.3214C105.147 57.1568 106.252 57.3871 107.178 57.9699C107.464 58.1597 107.71 58.4041 107.901 58.6891C108.092 58.974 108.224 59.2939 108.29 59.6302C108.368 60.0097 108.349 60.4026 108.235 60.773C108.122 61.1434 107.917 61.4796 107.64 61.7509C107.324 62.0279 106.922 62.1882 106.502 62.2049C106.066 62.2113 105.636 62.0968 105.26 61.8741C104.464 61.4029 103.871 60.6544 103.596 59.7728C103.283 58.8439 103.24 57.8455 103.472 56.8933C103.712 55.8872 104.259 54.9804 105.039 54.2992C105.855 53.5695 106.882 53.1155 107.972 53.0021C109.1 52.9318 110.232 53.077 111.307 53.4301C112.412 53.784 113.542 54.055 114.688 54.2408C115.87 54.3965 117.068 54.3965 118.25 54.2408C119.434 54.1003 120.589 53.781 121.677 53.2939C122.209 53.0801 122.689 52.7554 123.084 52.3416C123.48 51.9278 123.783 51.4343 123.972 50.8943C124.127 50.3656 124.138 49.8053 124.004 49.2708C123.871 48.7363 123.597 48.2469 123.211 47.8527C122.819 47.4991 122.331 47.2691 121.808 47.1918C121.285 47.1145 120.751 47.1933 120.272 47.4182C119.807 47.622 119.426 47.9792 119.193 48.4299C118.971 48.873 118.89 49.3728 118.959 49.8632C119.025 50.3326 119.191 50.7825 119.446 51.1829C119.7 51.5833 120.038 51.9249 120.435 52.1849C121.2 52.653 122.08 52.9 122.977 52.8983C123.804 52.9131 124.628 52.7904 125.415 52.5351C126.778 52.1072 128.017 51.3549 129.024 50.3431C129.789 49.591 130.42 48.7136 130.889 47.7489C131.185 47.1263 131.414 46.4741 131.572 45.8033C131.657 45.3493 131.715 45.1094 131.715 45.1094L131.598 45.8098C131.454 46.4802 131.236 47.1327 130.948 47.7554C130.489 48.7378 129.86 49.6314 129.089 50.395C128.08 51.4224 126.834 52.1882 125.461 52.6259C124.663 52.8829 123.829 53.01 122.99 53.0021C122.073 53.0079 121.172 52.7586 120.389 52.2822C119.977 52.0148 119.626 51.6622 119.362 51.2483C119.097 50.8344 118.924 50.3687 118.855 49.8826C118.778 49.3683 118.862 48.843 119.096 48.378C119.342 47.903 119.744 47.5257 120.233 47.3079C120.734 47.0709 121.295 46.9876 121.843 47.0684C122.392 47.1492 122.904 47.3906 123.315 47.7619C123.717 48.1718 124.003 48.6807 124.143 49.2367C124.284 49.7926 124.274 50.3758 124.115 50.9268C123.92 51.4854 123.608 51.9963 123.2 52.4256C122.792 52.8549 122.297 53.1929 121.748 53.4172C120.648 53.9078 119.48 54.2313 118.283 54.377C117.087 54.5294 115.877 54.5294 114.681 54.377C113.532 54.1896 112.397 53.9186 111.287 53.5663C110.227 53.2191 109.112 53.0718 107.998 53.1318C107.242 53.2121 106.514 53.4605 105.867 53.8586C105.22 54.2567 104.671 54.7944 104.259 55.4321C103.848 56.0699 103.586 56.7915 103.491 57.5438C103.397 58.2962 103.473 59.0601 103.713 59.7793C103.98 60.6349 104.554 61.3621 105.325 61.8222C105.683 62.0358 106.092 62.1479 106.509 62.1465C106.907 62.1317 107.288 61.9805 107.588 61.7185C107.851 61.4562 108.045 61.133 108.153 60.7777C108.261 60.4223 108.279 60.046 108.206 59.682C108.075 59.0273 107.692 58.4498 107.139 58.0737C106.228 57.4967 105.138 57.2665 104.071 57.4251C103.394 57.5065 102.727 57.6564 102.081 57.8726L101.418 58.0283Z" fill="#FFC233"/>
<path d="M91.8344 150.027L72.4858 276.804L88.5576 278.834L111.229 172.506L116.943 279.554L134.361 279.249L131.474 150.326L91.8344 150.027Z" fill="#263238"/>
<path d="M116.631 279.885V279.573L111.053 174.977L88.8112 279.204L72.1152 277.089L91.5548 149.742L131.793 150.041L134.693 279.606L116.631 279.885ZM111.43 170.041L117.281 279.229L134.062 278.938L131.188 150.657L92.114 150.391L72.8564 276.525L88.2976 278.471L111.43 170.041Z" fill="#263238"/>
<path d="M129.186 279.041C129.088 279.041 129.017 253.645 129.017 222.32C129.017 190.996 129.088 165.586 129.186 165.586C129.283 165.586 129.355 190.983 129.355 222.32C129.355 253.658 129.277 279.041 129.186 279.041Z" fill="#FFC233"/>
<path d="M85.021 278.584C85.0254 278.492 85.0385 278.4 85.06 278.311C85.06 278.11 85.1445 277.844 85.2095 277.507C85.3461 276.787 85.5476 275.749 85.8012 274.426C86.3473 271.735 87.1015 267.876 88.0832 263.109C90.0337 253.556 92.7968 240.378 95.9696 225.851C99.1423 211.324 102.127 198.184 104.337 188.696C105.449 183.962 106.353 180.129 106.983 177.457C107.302 176.16 107.555 175.122 107.724 174.409C107.809 174.071 107.88 173.812 107.926 173.617C107.948 173.527 107.976 173.438 108.01 173.352C108.01 173.352 108.01 173.442 107.958 173.624C107.906 173.806 107.867 174.084 107.796 174.422C107.633 175.142 107.406 176.173 107.113 177.489C106.509 180.161 105.644 183.975 104.571 188.748C102.419 198.255 99.4739 211.395 96.3012 225.922C93.1284 240.449 90.3263 253.621 88.3173 263.155C87.3095 267.915 86.4968 271.767 85.9312 274.452C85.6516 275.749 85.4306 276.8 85.2811 277.52L85.099 278.318C85.082 278.409 85.0559 278.498 85.021 278.584Z" fill="#FFC233"/>
<path d="M116.943 172.392C116.703 172.456 116.456 172.489 116.208 172.489L114.199 172.632C112.503 172.742 110.155 172.859 107.581 173.112C105.006 173.365 102.685 173.715 101.001 173.935L99.0053 174.188C98.7612 174.235 98.5121 174.25 98.2642 174.234C98.4974 174.149 98.7395 174.09 98.9858 174.059C99.4474 173.961 100.124 173.838 100.936 173.695C102.614 173.417 104.935 173.047 107.522 172.774C110.11 172.502 112.464 172.444 114.16 172.392C115.012 172.392 115.701 172.359 116.176 172.359C116.432 172.342 116.689 172.353 116.943 172.392Z" fill="#FFC233"/>
<path d="M131.813 164.164C131.654 164.233 131.485 164.275 131.312 164.287C130.847 164.354 130.377 164.376 129.908 164.352C128.347 164.269 126.843 163.74 125.575 162.828C124.307 161.916 123.328 160.66 122.756 159.209C122.583 158.773 122.454 158.321 122.372 157.86C122.314 157.536 122.307 157.354 122.333 157.348C122.359 157.341 122.502 158.061 122.984 159.112C123.607 160.484 124.574 161.672 125.792 162.562C127.023 163.431 128.459 163.965 129.96 164.112C131.078 164.229 131.8 164.099 131.813 164.164Z" fill="#FFC233"/>
<path d="M88.5254 152.51L133.048 152.368L130.61 123.06C130.343 116.354 130.382 115.55 130.213 109.363C130.213 109.363 136.533 116.983 141.506 122.334C142.972 123.906 144.901 124.971 147.015 125.376C149.129 125.781 151.316 125.503 153.261 124.584L179.267 106.483L174.398 94.0509L150.765 108.481C149.679 107.832 140.479 94.7124 134.121 88.3243C130.05 84.2355 124.558 81.8648 118.784 81.7027C113.991 81.5908 109.196 81.7836 104.428 82.2799C100.955 82.6509 97.7198 84.2173 95.2791 86.71C92.8383 89.2027 91.3445 92.4658 91.0545 95.9381C90.5929 101.418 90.9635 107.78 90.9635 118.592L88.5254 152.51Z" fill="#FFC233"/>
<path d="M90.6186 98.9141C90.6186 98.9141 90.6186 99.0373 90.6186 99.2578C90.6186 99.4783 90.6186 99.848 90.6186 100.237C90.6186 101.093 90.6186 102.325 90.6186 103.849C90.6186 106.898 90.7551 111.1 90.8917 115.75C91.0282 120.4 91.0477 124.616 90.9307 127.657C90.8787 129.181 90.8072 130.414 90.7356 131.263C90.7356 131.659 90.6771 131.983 90.6576 132.242C90.6381 132.502 90.6186 132.58 90.6186 132.58C90.6186 132.58 90.6186 132.463 90.6186 132.242C90.6186 132.022 90.6511 131.652 90.6706 131.263C90.7291 130.414 90.7811 129.181 90.8202 127.657C90.9112 124.609 90.8722 120.4 90.7421 115.75C90.6121 111.1 90.5016 106.898 90.5081 103.849C90.5081 102.325 90.5081 101.093 90.5536 100.237C90.5536 99.8415 90.5536 99.5237 90.5861 99.2578C90.6186 98.9919 90.6186 98.9141 90.6186 98.9141Z" fill="#263238"/>
<path d="M149.789 112.691C149.797 112.485 149.827 112.281 149.88 112.082C149.958 111.705 150.069 111.187 150.205 110.622C150.342 110.058 150.465 109.539 150.563 109.176C150.601 108.972 150.664 108.774 150.751 108.586C150.743 108.792 150.71 108.997 150.654 109.196C150.582 109.572 150.465 110.084 150.335 110.655C150.205 111.225 150.075 111.731 149.978 112.101C149.937 112.304 149.873 112.502 149.789 112.691Z" fill="#263238"/>
<path d="M152.162 113.053C151.913 112.288 151.712 111.508 151.558 110.719C151.357 109.939 151.199 109.148 151.083 108.352C151.328 109.118 151.53 109.897 151.688 110.686C151.888 111.466 152.046 112.257 152.162 113.053Z" fill="#263238"/>
<path d="M131.312 110.47L131.071 110.249L130.388 109.601C129.803 109.03 128.958 108.193 127.944 107.123C126.755 105.879 125.647 104.56 124.628 103.174C123.367 101.476 122.35 99.6124 121.605 97.6351C120.851 95.6536 120.513 93.5391 120.61 91.4221C120.643 89.6932 121.023 87.9884 121.728 86.4089C122.233 85.3523 122.985 84.4317 123.919 83.7239C124.17 83.5339 124.433 83.3606 124.706 83.2051L124.999 83.043C124.999 83.043 124.595 83.2635 123.952 83.7628C123.039 84.4799 122.307 85.3992 121.813 86.4478C121.126 88.0205 120.76 89.7135 120.734 91.4286C120.643 93.5289 120.983 95.6256 121.735 97.5897C122.476 99.5544 123.482 101.409 124.726 103.102C125.74 104.487 126.838 105.808 128.015 107.058C129.017 108.135 129.849 109.004 130.427 109.568L131.078 110.217C131.24 110.385 131.312 110.47 131.312 110.47Z" fill="#263238"/>
<path d="M102.374 98.4109C101.786 97.9375 101.271 97.3803 100.846 96.7572C100.338 96.2024 99.9135 95.5778 99.5845 94.9023C100.171 95.3744 100.686 95.9293 101.112 96.5496C101.622 97.1047 102.047 97.7319 102.374 98.4109Z" fill="#FAFAFA"/>
<path d="M112.49 109.867C111.873 110.718 111.167 111.501 110.383 112.202C109.678 112.983 108.891 113.688 108.036 114.303C109.358 112.671 110.851 111.184 112.49 109.867Z" fill="#FAFAFA"/>
<path d="M122.281 126.308C122.19 126.308 121.832 125.336 121.169 124.214C120.506 123.092 119.817 122.268 119.869 122.223C120.54 122.687 121.081 123.315 121.442 124.045C121.907 124.718 122.195 125.496 122.281 126.308Z" fill="#FAFAFA"/>
<path d="M96.8992 124.447C95.9099 122.376 95.5053 120.076 95.7289 117.793C95.8329 117.793 95.8589 119.311 96.1905 121.139C96.5221 122.968 97.0292 124.408 96.8992 124.447Z" fill="#FAFAFA"/>
<path d="M110.377 131.686C109.567 129.945 109.392 127.977 109.883 126.121C109.98 126.121 109.837 127.386 109.98 128.916C110.123 130.447 110.474 131.653 110.377 131.686Z" fill="#FAFAFA"/>
<path d="M105.045 142.197C103.973 141.731 102.949 141.159 101.99 140.491C100.969 139.92 100.004 139.253 99.1094 138.5C100.184 138.967 101.21 139.538 102.172 140.206C103.191 140.777 104.153 141.443 105.045 142.197Z" fill="#FAFAFA"/>
<path d="M126.006 139.09C126.052 139.181 124.544 139.926 122.795 141.035C121.046 142.144 119.713 143.176 119.648 143.098C120.513 142.171 121.512 141.38 122.613 140.75C123.653 140.027 124.797 139.468 126.006 139.09Z" fill="#FAFAFA"/>
<path d="M99.6295 150.981C98.5326 150.93 97.4435 150.769 96.3788 150.501C95.2828 150.34 94.2064 150.066 93.167 149.684C94.2643 149.735 95.3535 149.898 96.4178 150.17C97.5131 150.331 98.5893 150.602 99.6295 150.981Z" fill="#FAFAFA"/>
<path d="M113.699 148.696C112.459 147.496 111.617 145.946 111.287 144.254C111.378 144.254 111.781 145.279 112.451 146.498C113.121 147.717 113.777 148.632 113.699 148.696Z" fill="#FAFAFA"/>
<path d="M129.537 149.792C129.293 150.341 128.949 150.841 128.522 151.265C127.872 152.017 127.326 152.562 127.222 152.523C127.461 151.967 127.805 151.463 128.236 151.038C128.887 150.298 129.439 149.741 129.537 149.792Z" fill="#FAFAFA"/>
<path d="M100.585 105.211C100.637 105.289 100.059 105.769 99.285 106.275C98.8457 106.633 98.3398 106.902 97.7962 107.066C97.7442 106.988 98.3293 106.508 99.0965 105.996C99.5351 105.637 100.041 105.37 100.585 105.211Z" fill="#FAFAFA"/>
<path d="M111.56 92.9854C111.039 91.9224 110.646 90.8012 110.39 89.6455C110.038 88.5182 109.82 87.3537 109.74 86.1758C110.148 87.2798 110.478 88.411 110.728 89.5612C111.086 90.6815 111.364 91.8258 111.56 92.9854Z" fill="#FAFAFA"/>
<path d="M122.099 104.116C122.054 104.207 121.105 103.844 119.889 103.617C118.673 103.39 117.652 103.37 117.652 103.267C119.189 103 120.77 103.302 122.099 104.116Z" fill="#FAFAFA"/>
<path d="M129.342 94.6593C128.534 94.8946 127.68 94.9236 126.858 94.7436C126.021 94.6716 125.215 94.3882 124.518 93.92C124.557 93.8292 125.584 94.2118 126.91 94.4064C128.236 94.6009 129.329 94.562 129.342 94.6593Z" fill="#FAFAFA"/>
<path d="M136.747 105.203C136.625 104.01 136.686 102.805 136.929 101.63C137.068 100.437 137.393 99.2729 137.891 98.1797C137.982 98.1797 137.573 99.7491 137.241 101.682C136.91 103.614 136.851 105.21 136.747 105.203Z" fill="#FAFAFA"/>
<path d="M145.459 117.63C143.839 116.279 142.369 114.756 141.077 113.09C142.694 114.445 144.162 115.967 145.459 117.63Z" fill="#FAFAFA"/>
<path d="M152.702 116.664C152.03 118.13 151.154 119.495 150.101 120.717C150.39 119.959 150.784 119.246 151.271 118.597C151.655 117.889 152.136 117.238 152.702 116.664Z" fill="#FAFAFA"/>
<path d="M161.109 112.582C160.542 111.811 160.071 110.974 159.704 110.091C159.236 109.255 158.868 108.367 158.605 107.445C159.171 108.219 159.642 109.058 160.01 109.942C160.477 110.777 160.846 111.663 161.109 112.582Z" fill="#FAFAFA"/>
<path d="M172.551 107.863C170.545 107.738 168.561 107.385 166.635 106.812C167.642 106.823 168.645 106.944 169.625 107.176C170.624 107.294 171.605 107.524 172.551 107.863Z" fill="#FAFAFA"/>
<path d="M81.6597 120.012C82.3541 117.997 83.2653 116.064 84.3773 114.246C84.0803 115.27 83.6749 116.259 83.168 117.197C82.7662 118.186 82.2606 119.129 81.6597 120.012Z" fill="#FAFAFA"/>
<path d="M87.7251 109.336C86.9982 108.769 86.3433 108.115 85.7747 107.39C85.1187 106.739 84.5405 106.014 84.0518 105.23C84.7808 105.795 85.4361 106.449 86.0022 107.176C86.6616 107.824 87.2401 108.549 87.7251 109.336Z" fill="#FAFAFA"/>
<path d="M87.2181 126.477C87.2766 126.548 86.828 127.021 86.2168 127.534C85.6057 128.046 85.0531 128.396 84.988 128.325C84.923 128.254 85.3846 127.78 85.9958 127.274C86.6069 126.769 87.1596 126.392 87.2181 126.477Z" fill="#FAFAFA"/>
<path d="M89.2662 97.9944C89.3442 98.0528 89.0711 98.5133 88.6615 99.0256C88.252 99.538 87.8554 99.9011 87.7838 99.8428C87.7123 99.7844 87.9854 99.3239 88.395 98.8116C88.8046 98.2992 89.2272 97.9361 89.2662 97.9944Z" fill="#FAFAFA"/>
<g opacity="0.3">
<path opacity="0.3" d="M123.25 100.934C126 109.553 128.12 118.6 130.87 127.219L130.22 109.371C127.545 106.867 125.203 104.031 123.25 100.934Z" fill="black"/>
</g>
<path d="M78.5127 112.214C78.5353 112.143 78.5636 112.074 78.5972 112.007L78.8573 111.404C79.0913 110.885 79.4359 110.146 79.878 109.231C80.7622 107.402 82.0365 104.905 83.5709 102.207C85.1053 99.5095 86.5941 97.1358 87.7124 95.4431C88.2715 94.5935 88.7331 93.9126 89.0582 93.4521L89.4353 92.9203C89.5263 92.7971 89.5718 92.7322 89.5783 92.7387L89.4613 92.9333L89.1037 93.4781L87.8034 95.495C86.7046 97.2007 85.2028 99.5808 83.7009 102.272C82.1991 104.964 80.8793 107.461 79.982 109.27L78.9223 111.43C78.8118 111.65 78.7142 111.845 78.6362 112.013C78.6023 112.085 78.5609 112.152 78.5127 112.214Z" fill="#263238"/>
<path d="M82.9012 103.961C82.6695 104.076 82.4306 104.175 82.186 104.259C81.621 104.505 81.0811 104.805 80.5736 105.154C80.0694 105.508 79.6012 105.909 79.1758 106.354C78.8442 106.698 78.6622 106.925 78.6492 106.912C78.6362 106.899 78.6492 106.847 78.7532 106.737C78.8611 106.581 78.9783 106.431 79.1043 106.289C79.5133 105.817 79.9809 105.399 80.4956 105.044C81.0105 104.688 81.5673 104.396 82.1535 104.175C82.3299 104.106 82.5101 104.048 82.6931 104C82.7604 103.977 82.8304 103.964 82.9012 103.961Z" fill="#263238"/>
<path d="M83.5122 90.6562C82.9554 91.7186 82.3025 92.7281 81.5617 93.672C80.9009 94.6795 80.1455 95.6219 79.3057 96.4866C79.8651 95.4279 80.5179 94.4208 81.2561 93.4774C81.918 92.4687 82.6733 91.5241 83.5122 90.6562Z" fill="#FAFAFA"/>
<path d="M88.2065 80.112C88.5287 80.1688 88.8606 80.1244 89.1564 79.985C89.4522 79.8456 89.6973 79.618 89.8579 79.3337C90.222 78.7889 90.3911 78.1404 90.7096 77.5697C91.6784 75.877 93.8759 75.1377 94.7601 73.3996C94.8836 73.1531 94.9551 72.8159 94.7601 72.6473C94.5651 72.4787 94.2725 72.5954 94.0449 72.7056L88.2586 75.5981" fill="#FFBE9D"/>
<path d="M88.2454 75.5991C88.4241 75.4468 88.6232 75.3202 88.8371 75.2229C89.2272 75.0024 89.8058 74.6976 90.521 74.3215L93.0306 73.0244L93.7652 72.6547C94.0384 72.4606 94.3761 72.3793 94.708 72.4277C94.8097 72.4665 94.8976 72.5348 94.9601 72.6238C95.0227 72.7128 95.0571 72.8184 95.059 72.9271C95.062 73.1069 95.0219 73.2848 94.942 73.4459C94.801 73.7315 94.6264 73.9993 94.4219 74.2436C93.6078 75.0644 92.739 75.8293 91.8213 76.533C91.4537 76.854 91.1359 77.2278 90.8785 77.642C90.6445 78.0376 90.495 78.4462 90.3129 78.8158C90.1979 79.1283 90.0153 79.4117 89.7783 79.6459C89.5412 79.8801 89.2554 80.0595 88.9411 80.1713C88.8267 80.2167 88.7035 80.2357 88.5808 80.2267C88.458 80.2177 88.3389 80.181 88.2324 80.1194C88.4523 80.1272 88.672 80.0988 88.8826 80.0351C89.1576 79.9102 89.4044 79.7308 89.6078 79.5078C89.8112 79.2848 89.967 79.0229 90.0659 78.738C90.2223 78.3248 90.4002 77.92 90.599 77.5253C90.8609 77.0762 91.1898 76.6695 91.5742 76.319C92.4851 75.6117 93.3534 74.8516 94.1748 74.0426C94.3561 73.8186 94.515 73.5775 94.6494 73.3227C94.7665 73.0828 94.7665 72.8298 94.6494 72.7974C94.5324 72.765 94.2333 72.8752 93.9993 72.9985L93.2646 73.3616L90.716 74.5939C89.9878 74.9376 89.4157 75.2424 88.9801 75.3916C88.7474 75.498 88.4996 75.568 88.2454 75.5991Z" fill="#EB996E"/>
<path d="M260.868 19.946C260.868 20.0435 256.505 20.0955 251.116 20.0695C245.726 20.0435 241.363 19.9395 241.363 19.8485C241.363 19.7575 245.726 19.6989 251.116 19.725C256.505 19.751 260.868 19.855 260.868 19.946Z" fill="#263238"/>
<path d="M251.187 29.6124C251.096 29.6124 250.979 25.2672 250.92 19.8843C250.862 14.5015 250.92 10.1562 250.992 10.1562C251.063 10.1562 251.206 14.5015 251.258 19.8843C251.31 25.2672 251.284 29.6124 251.187 29.6124Z" fill="#263238"/>
<path d="M271.115 165.092C269.073 164.243 267.077 163.29 265.133 162.239C263.129 161.285 261.176 160.229 259.282 159.074C259.321 158.996 261.999 160.273 265.263 161.934C268.527 163.594 271.16 165.014 271.115 165.092Z" fill="#263238"/>
<path d="M262.285 168.025C263.104 165.974 264.031 163.967 265.061 162.013C265.985 160.016 267.012 158.067 268.137 156.176C267.314 158.226 266.388 160.232 265.36 162.188C264.435 164.184 263.408 166.132 262.285 168.025Z" fill="#263238"/>
<path d="M37.735 119.426C37.735 119.517 34.6533 120.833 30.7849 122.37C26.9165 123.908 23.7437 125.088 23.7112 125.004C23.6787 124.919 26.7864 123.596 30.6613 122.059C34.5363 120.522 37.696 119.342 37.735 119.426Z" fill="#263238"/>
<path d="M30.5573 115.213C30.5573 115.213 30.4468 115.025 30.2128 114.726C29.8813 114.313 29.4254 114.018 28.9125 113.883C28.5003 113.774 28.0657 113.78 27.6571 113.903C27.2486 114.025 26.8822 114.259 26.5989 114.577C26.3155 114.895 26.1264 115.285 26.0525 115.704C25.9787 116.123 26.0231 116.555 26.1808 116.95C26.3384 117.345 26.6031 117.689 26.9453 117.943C27.2876 118.197 27.6938 118.352 28.1188 118.389C28.5437 118.426 28.9707 118.344 29.3519 118.153C29.7331 117.962 30.0537 117.67 30.2778 117.308C30.5611 116.857 30.689 116.326 30.6419 115.796C30.6419 115.42 30.5313 115.219 30.5573 115.206C30.6762 115.378 30.7499 115.576 30.7719 115.784C30.8764 116.349 30.775 116.933 30.4858 117.431C30.272 117.809 29.9653 118.126 29.5944 118.353C29.2236 118.58 28.801 118.709 28.3663 118.728C27.83 118.748 27.3008 118.601 26.8511 118.309C26.4015 118.017 26.0534 117.593 25.8547 117.096C25.6561 116.599 25.6164 116.052 25.7413 115.532C25.8662 115.011 26.1496 114.542 26.5524 114.188C26.8776 113.903 27.2703 113.705 27.6935 113.613C28.1166 113.521 28.5563 113.538 28.971 113.663C29.5242 113.822 30.0017 114.174 30.3168 114.655C30.4401 114.819 30.5225 115.011 30.5573 115.213Z" fill="#263238"/>
<path d="M35.4335 127.412C35.401 127.412 35.323 127.224 35.0889 126.926C34.7594 126.511 34.3027 126.215 33.7886 126.083C33.4153 125.987 33.0241 125.985 32.6498 126.077C32.2756 126.169 31.9298 126.351 31.6431 126.608C31.2951 126.921 31.0516 127.333 30.9452 127.789C30.8389 128.244 30.8749 128.721 31.0484 129.155C31.2218 129.59 31.5244 129.96 31.9155 130.218C32.3066 130.476 32.7674 130.608 33.236 130.597C33.6259 130.593 34.0087 130.492 34.3495 130.303C34.6902 130.114 34.9779 129.842 35.1865 129.514C35.4667 129.062 35.5944 128.532 35.5506 128.002C35.5506 127.626 35.4335 127.425 35.466 127.412C35.5841 127.582 35.6578 127.778 35.6806 127.983C35.783 128.551 35.6793 129.138 35.388 129.637C35.1758 130.015 34.8702 130.332 34.5004 130.559C34.1306 130.786 33.7088 130.915 33.275 130.934C32.7387 130.954 32.2095 130.807 31.7598 130.515C31.3102 130.223 30.9621 129.799 30.7634 129.302C30.5647 128.805 30.5251 128.258 30.65 127.738C30.7749 127.217 31.0582 126.748 31.4611 126.394C31.7881 126.112 32.1805 125.915 32.6028 125.823C33.0251 125.73 33.464 125.743 33.8797 125.862C34.4316 126.028 34.9078 126.381 35.2255 126.861C35.3383 127.025 35.4096 127.215 35.4335 127.412Z" fill="#263238"/>
<path d="M74.0851 52.0167C74.0851 52.0167 74.1567 52.1918 74.2802 52.5291C74.4037 52.8663 74.5858 53.3787 74.8198 54.0272C75.2879 55.3243 75.9771 57.2699 76.8548 59.7862L76.9003 59.903H76.7703L68.4223 58.7486H68.5068C65.5943 61.0307 62.1457 62.5331 58.4879 63.1132C57.4578 63.278 56.4169 63.3669 55.3737 63.3791C54.8406 63.3791 54.301 63.3337 53.7548 63.3208L52.9421 63.2818C52.6691 63.2818 52.396 63.204 52.1229 63.1651C49.8384 62.8872 47.6166 62.2296 45.5499 61.2195C43.3438 60.1535 41.3294 58.7313 39.588 57.0105C37.2852 54.717 35.5243 51.94 34.4335 48.8818C33.3428 45.8235 32.9498 42.5611 33.283 39.3321C33.6162 36.1032 34.6673 32.9891 36.3598 30.2166C38.0522 27.4442 40.3434 25.0833 43.0663 23.3059C45.0113 22.0306 47.1527 21.082 49.4053 20.4977L50.231 20.2837L50.6406 20.1799L51.0567 20.1151L52.7211 19.8686C53.2737 19.8168 53.8263 19.8038 54.379 19.7714C54.9244 19.7325 55.4719 19.7325 56.0174 19.7714C56.557 19.8168 57.1031 19.7714 57.6297 19.8881L59.2096 20.1345C59.7297 20.2189 60.2369 20.381 60.744 20.5042L61.4982 20.6988C61.7452 20.7766 61.9858 20.8739 62.2263 20.9582C67.5709 22.8068 71.9817 26.6622 74.5207 31.7045C75.846 34.332 76.6245 37.1999 76.8093 40.1355C77.0561 43.7683 76.3574 47.4032 74.7808 50.6872C74.5663 51.1217 74.3972 51.446 74.2802 51.6535C74.1632 51.8611 74.0851 51.9778 74.0851 51.9778C74.0851 51.9778 74.1306 51.8676 74.2412 51.6471C74.3517 51.4265 74.5207 51.0958 74.7158 50.6613C75.2965 49.3914 75.7537 48.0688 76.0811 46.7117C76.6095 44.5664 76.7895 42.3506 76.6142 40.1485C76.3418 35.9221 74.8233 31.8703 72.2495 28.5022C69.6757 25.134 66.1615 22.5997 62.1483 21.2176C61.9078 21.1333 61.6737 21.0425 61.4266 20.9647L60.6855 20.7701C60.1848 20.6534 59.6842 20.4912 59.1706 20.4134L57.6102 20.1735C57.0901 20.0827 56.557 20.1021 56.0174 20.0632C55.4807 20.021 54.9416 20.021 54.405 20.0632C53.8653 20.0632 53.3192 20.1086 52.7731 20.154L51.1347 20.4069L50.7251 20.4718L50.3155 20.5755L49.5028 20.7831C47.2859 21.3609 45.1794 22.2986 43.2678 23.5588C40.0695 25.6355 37.4823 28.5233 35.7715 31.926C34.0606 35.3288 33.2877 39.1242 33.5318 42.9231C33.776 46.722 35.0284 50.3879 37.1609 53.5448C39.2933 56.7018 42.2289 59.2364 45.6669 60.8887C47.7094 61.8964 49.9072 62.5541 52.1684 62.8344C52.435 62.8733 52.7016 62.9251 52.9746 62.9511L53.7808 62.99C54.3205 62.99 54.8471 63.0678 55.3737 63.0549C56.4037 63.0471 57.4316 62.9626 58.4489 62.8019C62.0686 62.2464 65.486 60.7775 68.3768 58.5345H68.4158H68.4223L76.7833 59.7278L76.6988 59.8251C75.8471 57.3153 75.1904 55.3632 74.7483 53.9883L74.2477 52.4902C74.1307 52.1918 74.0851 52.0167 74.0851 52.0167Z" fill="#263238"/>
<path d="M56.1736 36.514C56.3213 36.5856 56.446 36.6971 56.5333 36.8358C56.6207 36.9745 56.6672 37.1349 56.6678 37.2987V41.618C56.6667 41.7515 56.6348 41.8829 56.5746 42.0021C56.5144 42.1213 56.4275 42.225 56.3206 42.3053C56.2137 42.3856 56.0897 42.4402 55.9583 42.465C55.8268 42.4898 55.6914 42.484 55.5625 42.4481C55.2055 42.3571 54.8338 42.3389 54.4696 42.3946C54.1054 42.4503 53.7562 42.5788 53.443 42.7724C53.156 42.9389 52.9056 43.1614 52.7068 43.4266C52.508 43.6918 52.3648 43.9943 52.2857 44.3159C52.231 44.644 52.242 44.9797 52.3178 45.3036C52.3937 45.6275 52.533 45.9332 52.7278 46.2032C52.9333 46.5076 53.197 46.7686 53.5038 46.9711C53.8106 47.1737 54.1545 47.3138 54.5157 47.3835C55.2494 47.4568 55.9862 47.2791 56.6052 46.8796C57.2243 46.4801 57.6888 45.8825 57.9225 45.185C58.002 44.9778 58.1578 44.8087 58.3581 44.7124C58.5585 44.6161 58.7881 44.5999 59.0001 44.6671C59.212 44.7342 59.3902 44.8797 59.4981 45.0736C59.606 45.2676 59.6355 45.4954 59.5804 45.7103C59.2172 46.8012 58.4879 47.7337 57.5155 48.3504C56.543 48.9672 55.3871 49.2304 54.2427 49.0957C53.6488 48.9907 53.0821 48.7678 52.5762 48.4403C52.0703 48.1127 51.6355 47.6872 51.2975 47.189C50.9658 46.7242 50.7315 46.1975 50.6086 45.6403C50.4857 45.0831 50.4768 44.507 50.5823 43.9463C50.7096 43.3934 50.9481 42.8721 51.2834 42.4139C51.6186 41.9557 52.0437 41.5702 52.5328 41.2808C53.2548 40.8479 54.083 40.6234 54.9253 40.6322V37.2987C54.9253 37.0694 55.0162 36.8493 55.1782 36.6865C55.3402 36.5237 55.5601 36.4314 55.79 36.4297C55.9226 36.429 56.0537 36.4578 56.1736 36.514Z" fill="#FF725E"/>
<path d="M54.9768 34.7015C54.973 34.5602 55.0113 34.4209 55.0869 34.3014C55.1626 34.1818 55.2721 34.0874 55.4016 34.0301C55.5312 33.9727 55.6748 33.9551 55.8145 33.9793C55.9541 34.0036 56.0833 34.0687 56.1858 34.1663C56.2882 34.264 56.3593 34.3898 56.39 34.5278C56.4206 34.6658 56.4095 34.8098 56.358 34.9415C56.3065 35.0731 56.2169 35.1866 56.1006 35.2674C55.9844 35.3482 55.8467 35.3928 55.705 35.3954C55.5169 35.3972 55.3355 35.3257 55.1995 35.1961C55.0635 35.0665 54.9836 34.889 54.9768 34.7015Z" fill="#FF725E"/>
</svg>
