<svg width="80" height="80" viewBox="0 0 80 80" fill="none" xmlns="http://www.w3.org/2000/svg">
<path d="M42.9275 55.1917C44.2776 52.7227 45.2396 49.2527 45.8011 45.3845H54.8751C52.4974 50.15 48.1611 53.7716 42.9275 55.1917ZM21.1247 45.3845H30.1988C30.7604 49.2527 31.7221 52.7227 33.0722 55.1917C27.8385 53.7716 23.5022 50.15 21.1247 45.3845ZM33.0722 18.8086C31.7221 21.2776 30.7604 24.7476 30.1988 28.6155H21.1247C23.5022 23.8503 27.8385 20.2275 33.0722 18.8086ZM54.8751 28.6155H45.8011C45.2396 24.7476 44.2776 21.2776 42.9275 18.8086C48.1611 20.2275 52.4974 23.8503 54.8751 28.6155ZM46.1623 31.7693H56.107C56.5876 33.4301 56.8461 35.1857 56.8461 36.9997C56.8461 38.8146 56.5876 40.5699 56.107 42.231H46.1623C46.31 40.5147 46.3839 38.7562 46.3839 36.9997C46.3839 35.2441 46.31 33.4856 46.1623 31.7693ZM37.9998 18.1539C38.8375 18.1539 40.1886 19.6704 41.318 23.0576C41.8627 24.6921 42.299 26.5713 42.6164 28.6155H33.3835C33.7006 26.5707 34.1369 24.6921 34.6819 23.0576C35.811 19.6704 37.1621 18.1539 37.9998 18.1539ZM19.1537 36.9997C19.1537 35.1857 19.4111 33.4301 19.8926 31.7693H29.8374C29.6896 33.4856 29.6148 35.2441 29.6148 36.9997C29.6148 38.7562 29.6896 40.5147 29.8374 42.231H19.8926C19.4111 40.5689 19.1537 38.8146 19.1537 36.9997ZM33.0005 42.231C32.8483 40.5496 32.7684 38.7949 32.7684 36.9997C32.7684 35.2041 32.8483 33.4508 33.0005 31.7693H42.9991C43.1504 33.4508 43.2303 35.2041 43.2303 36.9997C43.2303 38.7949 43.1504 40.5496 42.9991 42.231H33.0005ZM37.9998 55.8465C37.1621 55.8465 35.811 54.3299 34.6819 50.9427C34.1369 49.3082 33.7016 47.4286 33.3835 45.3845H42.6164C42.299 47.4286 41.8627 49.3073 41.318 50.9427C40.1886 54.3299 38.8375 55.8465 37.9998 55.8465ZM58.7751 44.238C59.5675 41.97 60 39.534 60 36.9997C60 34.465 59.5675 32.03 58.7751 29.7623C58.7564 29.6945 58.733 29.6279 58.7054 29.5641C55.6501 21.0817 47.5225 15 37.9998 15C28.4774 15 20.3496 21.0817 17.2946 29.5641C17.2667 29.6279 17.243 29.6945 17.2246 29.7623C16.4323 32.03 16 34.465 16 36.9997C16 39.534 16.4323 41.97 17.2246 44.238C17.244 44.3059 17.2667 44.3724 17.2946 44.4362C20.3507 52.9187 28.4774 59 37.9998 59C47.5225 59 55.6501 52.9187 58.7054 44.4362C58.733 44.3724 58.7564 44.3059 58.7751 44.238Z" fill="#CA2E55"/>
<path d="M51.0558 30H24.9441C21.125 30 18 33.15 18 36.9998C18 40.85 21.125 44 24.9441 44H51.0558C54.875 44 58 40.85 58 36.9998C58 33.15 54.875 30 51.0558 30Z" fill="#4D7298"/>
<path fill-rule="evenodd" clip-rule="evenodd" d="M24.8965 43.1217C21.5754 43.1217 18.854 40.3648 18.854 36.9998C18.854 33.6352 21.5753 30.8783 24.8965 30.8783H51.1035C54.4247 30.8783 57.146 33.6352 57.146 36.9998C57.146 40.3648 54.4246 43.1217 51.1035 43.1217H24.8965ZM17 36.9998C17 41.4021 20.5514 45 24.8965 45H51.1035C55.4486 45 59 41.4021 59 36.9998C59 32.5979 55.4486 29 51.1035 29H24.8965C20.5514 29 17 32.5979 17 36.9998Z" fill="#CA2E55"/>
<path d="M33.4083 34L31.4461 39H29.9368L28.7192 35.8959L27.4614 39H25.9521L24 34H25.4792L26.7571 37.3829L28.0853 34H29.4135L30.7015 37.3829L32.0197 34H33.4083Z" fill="white"/>
<path d="M42.7041 34L40.742 39H39.2326L38.0151 35.8959L36.7573 39H35.248L33.2959 34H34.775L36.0529 37.3829L37.3812 34H38.7094L39.9974 37.3829L41.3155 34H42.7041Z" fill="white"/>
<path d="M52 34L50.0378 39H48.5285L47.311 35.8959L46.0532 39H44.5438L42.5917 34H44.0709L45.3488 37.3829L46.677 34H48.0053L49.2932 37.3829L50.6114 34H52Z" fill="white"/>
<path d="M66 57.7627L50.6972 43L50 63.7212L55.4485 59.6372L58.4792 67L62.1156 65.6461L59.0849 58.283L66 57.7627Z" fill="white"/>
<path fill-rule="evenodd" clip-rule="evenodd" d="M57.5807 68L62.5326 66.0051L59.7021 58.5641L67 57.9701L49.7843 40L49 65.223L54.7501 60.5594L57.5807 68ZM58.4558 65.9406L55.4293 57.985L50.6497 61.8613L51.2127 43.7549L63.5711 56.6547L57.505 57.1485L60.5314 65.1044L58.4558 65.9406Z" fill="#CA2E55"/>
</svg>
