<svg width="80" height="80" viewBox="0 0 80 80" fill="none" xmlns="http://www.w3.org/2000/svg">
<path d="M28.19 40.3678L29.4644 34H31.9684L29.4914 44H27.3195L25.4797 37.7061L23.6399 44H21.477L19 34H21.5039L22.7694 40.3586L24.5463 34H26.422L28.19 40.3678Z" fill="#CA2E55"/>
<path d="M41.7059 40.3678L42.9803 34H45.4842L43.0072 44H40.8353L38.9955 37.7061L37.1557 44H34.9928L32.5158 34H35.0197L36.2852 40.3586L38.0622 34H39.9379L41.7059 40.3678Z" fill="#CA2E55"/>
<path d="M55.2217 40.3678L56.4961 34H59L56.523 44H54.3511L52.5113 37.7061L50.6715 44H48.5086L46.0316 34H48.5356L49.801 40.3586L51.578 34H53.4537L55.2217 40.3678Z" fill="#CA2E55"/>
<path d="M67.7972 34V52.6437H50V56H67.7972H71V52.6437V34H67.7972Z" fill="#4D7298"/>
<path d="M11.2031 45V27.2027H29V24H11.2031H8V27.2027V45H11.2031Z" fill="#4D7298"/>
</svg>
