<svg width="80" height="80" viewBox="0 0 80 80" fill="none" xmlns="http://www.w3.org/2000/svg">
<circle cx="39.5" cy="35.5" r="14.5" fill="white"/>
<path d="M49.0184 54.9891C48.2892 56.0815 47.0467 56.8049 45.6422 56.8049H33.3583C31.9537 56.8049 30.7108 56.0815 29.9816 54.9891H10C10 57.8951 12.3776 60.2727 15.2836 60.2727H63.7164C66.6228 60.2727 69 57.8951 69 54.9891H49.0184Z" fill="#CA2E55"/>
<path d="M36.9352 26.4037C34.2107 27.1421 31.9533 29.0279 30.7156 31.5085H35.4391C35.7315 29.4951 36.2321 27.689 36.9352 26.4037Z" fill="#CA2E55"/>
<path d="M35.1353 35.8729C35.1353 34.9589 35.1745 34.0435 35.2511 33.1501H30.0745C29.8235 34.0149 29.6897 34.9285 29.6897 35.8729C29.6897 36.8178 29.8235 37.731 30.0745 38.5962H35.2511C35.1745 37.7028 35.1353 36.7874 35.1353 35.8729Z" fill="#CA2E55"/>
<path d="M30.7156 40.2378C31.9533 42.7184 34.2107 44.6042 36.9352 45.343C36.2321 44.0578 35.7315 42.2517 35.4391 40.2378H30.7156Z" fill="#CA2E55"/>
<path d="M41.2274 28.6153C40.6396 26.8519 39.936 26.0625 39.5001 26.0625C39.0642 26.0625 38.361 26.8519 37.7732 28.6153C37.4897 29.466 37.262 30.4439 37.0969 31.5085H41.9032C41.7381 30.4448 41.5109 29.466 41.2274 28.6153Z" fill="#CA2E55"/>
<path d="M48.2844 31.5085C47.0472 29.0279 44.7898 27.1421 42.0652 26.4037C42.7679 27.689 43.269 29.4951 43.5613 31.5085H48.2844Z" fill="#CA2E55"/>
<path d="M36.7769 35.8729C36.7769 36.8077 36.8187 37.7209 36.8979 38.5962H42.1027C42.1815 37.7209 42.2233 36.8077 42.2233 35.8729C42.2233 34.9382 42.1815 34.0255 42.1027 33.1501H36.8979C36.8187 34.0255 36.7769 34.9382 36.7769 35.8729Z" fill="#CA2E55"/>
<path d="M43.749 33.1501C43.8261 34.0435 43.8648 34.9589 43.8648 35.8729C43.8648 36.7874 43.8261 37.7028 43.749 38.5962H48.9261C49.1766 37.7314 49.3109 36.8178 49.3109 35.8729C49.3109 34.9285 49.1766 34.0149 48.9261 33.1501H43.749Z" fill="#CA2E55"/>
<path d="M37.7732 43.131C38.361 44.8949 39.0642 45.6843 39.5001 45.6843C39.936 45.6843 40.6396 44.8949 41.2274 43.131C41.5109 42.2799 41.7381 41.302 41.9032 40.2378H37.0969C37.2625 41.302 37.4897 42.2804 37.7732 43.131Z" fill="#CA2E55"/>
<path d="M50.3151 39.6411C50.305 39.6763 50.2931 39.7111 50.2785 39.7441C48.6882 44.1599 44.4574 47.3256 39.5 47.3256C34.5432 47.3256 30.3128 44.1599 28.722 39.7441C28.7074 39.7111 28.6956 39.6763 28.6859 39.6411C28.2729 38.4602 28.0479 37.1922 28.0479 35.873C28.0479 34.5534 28.2729 33.2858 28.6859 32.1054C28.6951 32.0702 28.7074 32.0354 28.722 32.0024C30.3123 27.5866 34.5432 24.4209 39.5 24.4209C44.4574 24.4209 48.6882 27.5866 50.2785 32.0024C50.2931 32.0354 50.305 32.0702 50.3151 32.1054C50.7272 33.2858 50.9526 34.5534 50.9526 35.873C50.9526 37.1922 50.7272 38.4602 50.3151 39.6411ZM62.6892 24.2835C62.6892 21.3775 60.3116 18.9999 57.4057 18.9999H21.5949C18.6885 18.9999 16.3113 21.3775 16.3113 24.2835V52.7466H62.6892V24.2835Z" fill="#4D7298"/>
<path d="M42.0652 45.343C44.7898 44.6042 47.0472 42.7184 48.2844 40.2378H43.5613C43.269 42.2517 42.7679 44.0578 42.0652 45.343Z" fill="#CA2E55"/>
</svg>
