<svg width="392" height="385" viewBox="0 0 392 385" fill="none" xmlns="http://www.w3.org/2000/svg">
<path d="M293.342 89.3082C259.74 59.9456 214.256 89.3082 170.065 151.098C125.874 212.888 104.862 186.884 67.2959 214.117C29.7301 241.351 19.6826 352.911 152.034 342.065C284.386 331.219 381.182 165.963 293.342 89.3082Z" fill="#F0F0F0"/>
<path d="M304.508 23.5175L299.783 25.2059L297.755 19.0306C294.029 7.64338 282.156 1.59652 271.246 5.44118C260.336 9.28584 254.528 21.7741 258.253 33.1613L260.281 39.3366L255.537 41.0341C253.728 41.7358 252.259 43.1075 251.435 44.8642C250.612 46.621 250.497 48.6275 251.114 50.4669L264.263 90.6477C264.536 91.5583 264.989 92.4046 265.596 93.1366C266.202 93.8685 266.95 94.4711 267.794 94.9085C268.638 95.3459 269.561 95.6091 270.509 95.6827C271.456 95.7562 272.409 95.6385 273.31 95.3366L322.282 77.8199C324.115 77.1195 325.604 75.7356 326.438 73.9593C327.271 72.183 327.383 70.1527 326.75 68.2955L313.592 28.1146C313.312 27.2066 312.852 26.3643 312.239 25.638C311.627 24.9117 310.874 24.3163 310.026 23.8873C309.178 23.4582 308.253 23.2044 307.305 23.1408C306.357 23.0773 305.406 23.2054 304.508 23.5175V23.5175ZM267.181 29.9406C266.177 26.9798 266.357 23.7451 267.684 20.9142C269.011 18.0834 271.383 15.876 274.301 14.7546C275.743 14.2615 277.268 14.0638 278.788 14.1732C280.307 14.2827 281.788 14.697 283.144 15.3915C284.5 16.086 285.702 17.0465 286.678 18.2156C287.654 19.3847 288.385 20.7385 288.827 22.1962L290.845 28.3715L269.2 36.1159L267.181 29.9406ZM294.708 65.5978L298.067 75.8563C298.128 76.062 298.109 76.2836 298.011 76.475C297.914 76.6663 297.746 76.8128 297.544 76.884L292.837 78.5632C292.649 78.6151 292.449 78.5925 292.278 78.5002C292.107 78.4078 291.978 78.2528 291.919 78.0677L288.533 67.855C286.666 67.7533 284.875 67.0837 283.399 65.9357C281.923 64.7878 280.833 63.2164 280.275 61.432C279.477 59.0728 279.622 56.4964 280.681 54.2421C281.74 51.9879 283.63 50.2306 285.955 49.3382C287.103 48.946 288.318 48.7889 289.528 48.8763C290.738 48.9637 291.918 49.2938 292.998 49.8469C294.078 50.4001 295.035 51.1649 295.813 52.0959C296.591 53.0269 297.173 54.1049 297.525 55.2658C298.116 57.0785 298.165 59.0241 297.666 60.8641C297.167 62.7042 296.143 64.3588 294.718 65.6253L294.708 65.5978Z" fill="#4D7298"/>
<path d="M299.572 25.0958C299.572 25.2243 290.809 28.5184 279.908 32.4364C269.008 36.3545 260.116 39.5018 260.07 39.4101C260.024 39.3183 268.833 35.9967 279.743 32.0694C290.653 28.1422 299.526 24.9765 299.572 25.0958Z" fill="#263238"/>
<path d="M309.977 26.7842C310.017 26.8638 310.051 26.9467 310.078 27.0319C310.151 27.2154 310.234 27.454 310.344 27.7476C310.583 28.4175 310.913 29.3442 311.326 30.5004L314.849 40.7589C316.317 45.1083 318.07 50.2651 320.015 55.9908C320.933 58.8628 322.016 61.8541 323.025 65.0014C323.565 66.6233 323.799 68.3316 323.713 70.0389C323.635 70.9269 323.383 71.7907 322.97 72.5806C322.529 73.368 321.94 74.0627 321.236 74.6268C319.818 75.6617 318.245 76.4639 316.574 77.0034L311.849 78.7009L302.902 81.9033L287.753 87.2986L277.522 90.8955L274.769 91.8131L274.035 92.0517C273.957 92.0866 273.873 92.1083 273.788 92.1159C273.788 92.1159 273.861 92.1159 274.017 92.0058L274.733 91.7214L277.485 90.6845L287.661 86.9408L302.783 81.4353L311.711 78.2054L316.437 76.4987C318.059 75.9812 319.587 75.2033 320.96 74.1956C321.616 73.6722 322.164 73.0272 322.575 72.2962C322.964 71.5656 323.198 70.7629 323.264 69.938C323.348 68.293 323.124 66.6466 322.603 65.084C321.612 61.9642 320.566 58.9454 319.621 56.0734C317.712 50.3385 315.95 45.1633 314.556 40.814C313.161 36.4647 311.986 32.9687 311.179 30.5096C310.794 29.3075 310.5 28.3716 310.261 27.6926L310.041 26.9585C310.014 26.9029 309.992 26.8445 309.977 26.7842V26.7842Z" fill="#263238"/>
<path d="M284.138 14.1307C284.138 14.1307 283.651 13.8921 282.752 13.5251C281.47 13.0326 280.115 12.7596 278.742 12.7176C276.708 12.6479 274.684 13.0302 272.815 13.8371C270.542 14.8418 268.599 16.4669 267.208 18.5259C265.808 20.579 265.057 23.0053 265.052 25.4903C265.071 27.5271 265.38 29.5508 265.97 31.5005C266.447 33.1705 266.942 34.501 267.273 35.4277C267.468 35.8985 267.627 36.3831 267.75 36.8775C267.489 36.4374 267.271 35.9735 267.098 35.492C266.722 34.5744 266.181 33.2714 265.649 31.5923C264.995 29.6221 264.64 27.5655 264.593 25.4903C264.569 22.9114 265.338 20.3873 266.796 18.2598C268.235 16.1256 270.257 14.4502 272.622 13.4333C274.549 12.622 276.637 12.2642 278.724 12.3873C280.126 12.4587 281.504 12.7852 282.789 13.3507C283.133 13.5093 283.464 13.6933 283.78 13.9013C283.91 13.9586 284.031 14.036 284.138 14.1307V14.1307Z" fill="#263238"/>
<path d="M284.56 50.0356C284.706 49.9469 284.86 49.8702 285.019 49.8062C285.478 49.599 285.954 49.4302 286.441 49.3016C287.214 49.0733 288.012 48.9378 288.817 48.8978C289.913 48.839 291.009 49.0045 292.038 49.3842C294.387 50.21 296.543 52.6049 297.608 55.8072C298.118 57.5258 298.118 59.3556 297.608 61.0741C297.042 62.9394 296.027 64.6375 294.653 66.0199L294.708 65.7722C295.929 69.1213 297.259 72.7549 298.636 76.5446L298.718 76.7739L298.489 76.8565L296.387 77.5539L291.8 79.0862L291.57 79.1597L291.497 78.9303C290.24 75.1315 288.863 71.5896 287.826 68.112L288.028 68.268C286.234 68.119 284.524 67.4457 283.11 66.3319C281.831 65.3465 280.782 64.094 280.036 62.6616C279.363 61.3913 279.029 59.9694 279.064 58.5324C279.106 57.0638 279.473 55.6227 280.137 54.3124C280.802 53.0021 281.748 51.855 282.908 50.9532C283.386 50.5656 283.921 50.256 284.496 50.0356C283.977 50.3432 283.475 50.677 282.991 51.0358C281.717 52.1138 280.74 53.5008 280.155 55.064C279.653 56.2428 279.419 57.518 279.468 58.7983C279.517 60.0786 279.849 61.3321 280.44 62.4689C281.173 63.8469 282.197 65.0491 283.44 65.9924C284.789 67.051 286.42 67.6893 288.129 67.8275H288.285L288.331 67.9652C289.34 71.3786 290.726 74.948 292.001 78.7651L291.699 78.6183L296.286 77.0859L298.379 76.3794L298.232 76.6914C296.865 72.9018 295.543 69.259 294.332 65.9098V65.7722L294.442 65.662C295.776 64.3369 296.771 62.7096 297.342 60.9182C297.828 59.2742 297.828 57.5245 297.342 55.8806C296.342 52.7976 294.277 50.4577 292.038 49.6319C291.047 49.2498 289.989 49.0719 288.928 49.1089C288.135 49.127 287.347 49.2348 286.579 49.43C285.211 49.7695 284.569 50.0815 284.56 50.0356Z" fill="#263238"/>
<path d="M256.197 314.978L164.54 314.556C159.247 314.527 154.182 312.398 150.457 308.637C146.732 304.876 144.653 299.791 144.674 294.498L145.647 64.7261C145.658 62.1037 146.185 59.5092 147.2 57.0908C148.214 54.6724 149.695 52.4775 151.557 50.6318C153.42 48.786 155.629 47.3254 158.056 46.3336C160.484 45.3417 163.083 44.838 165.705 44.8513L257.353 45.2734C262.647 45.3001 267.713 47.4266 271.439 51.1857C275.166 54.9449 277.248 60.0294 277.228 65.3226L276.256 295.085C276.245 297.708 275.717 300.303 274.703 302.723C273.69 305.142 272.209 307.338 270.346 309.186C268.484 311.033 266.276 312.495 263.848 313.489C261.42 314.483 258.821 314.989 256.197 314.978V314.978Z" fill="#455A64"/>
<path d="M257.217 53.1737H239.452C238.873 53.1845 238.301 53.3093 237.769 53.5411C237.238 53.7729 236.758 54.1071 236.355 54.5246C235.953 54.9421 235.637 55.4348 235.425 55.9745C235.214 56.5142 235.11 57.0903 235.121 57.6699V60.8906C235.132 61.4698 235.029 62.0454 234.817 62.5846C234.605 63.1237 234.289 63.6158 233.887 64.0326C233.484 64.4494 233.004 64.7827 232.472 65.0135C231.941 65.2443 231.37 65.368 230.79 65.3776L196.161 65.2216C194.989 65.1903 193.878 64.6954 193.071 63.8455C192.264 62.9956 191.828 61.8603 191.857 60.6887V57.468C191.887 56.298 191.452 55.164 190.647 54.3144C189.842 53.4647 188.733 52.9688 187.563 52.9352H181.314L165.761 52.8618C162.062 52.8397 158.505 54.2845 155.868 56.8796C153.232 59.4748 151.731 63.0088 151.695 66.708L150.777 290.983C150.769 292.818 151.122 294.637 151.816 296.336C152.511 298.035 153.533 299.58 154.825 300.884C156.117 302.187 157.652 303.224 159.345 303.934C161.037 304.644 162.853 305.014 164.688 305.022L256.152 305.444C257.989 305.453 259.809 305.099 261.509 304.404C263.208 303.709 264.755 302.686 266.059 301.394C267.364 300.101 268.401 298.564 269.111 296.871C269.822 295.178 270.192 293.361 270.2 291.525L271.118 67.2494C271.14 63.5398 269.688 59.9732 267.081 57.3338C264.474 54.6943 260.926 53.198 257.217 53.1737V53.1737Z" fill="white"/>
<path d="M244.911 275.522L176.9 275.228C176.194 275.228 175.625 274.457 175.634 273.522L175.708 255.73C175.708 254.812 176.286 254.023 176.992 254.023L245.003 254.335C245.395 254.403 245.745 254.619 245.981 254.939C246.217 255.258 246.32 255.657 246.27 256.051L246.205 273.824C246.205 274.769 245.618 275.531 244.911 275.522Z" fill="#CA2E55"/>
<path d="M190.466 119.102L166.866 118.995L166.846 123.326L190.446 123.433L190.466 119.102Z" fill="#FFC233"/>
<path opacity="0.1" d="M190.466 119.102L166.866 118.995L166.846 123.326L190.446 123.433L190.466 119.102Z" fill="black"/>
<path d="M259.648 145.693C259.833 145.675 260.015 145.631 260.189 145.565C260.443 145.466 260.664 145.297 260.826 145.078C260.989 144.859 261.086 144.598 261.107 144.326C261.107 142.867 261.107 140.738 261.107 138.004C261.107 136.637 261.107 135.105 261.107 133.416C261.107 133.003 261.107 132.572 261.107 132.141C261.167 131.722 261.076 131.296 260.85 130.939C260.724 130.767 260.559 130.628 260.37 130.53C260.18 130.433 259.971 130.381 259.758 130.379H258.327H245.067L168.321 130.095C168.125 130.091 167.93 130.135 167.755 130.223C167.579 130.311 167.427 130.44 167.312 130.599C167.09 130.958 167.005 131.385 167.073 131.801C167.073 132.719 167.073 133.636 167.073 134.554C167.073 136.389 167.073 138.224 167.073 140.059C167.073 140.977 167.073 141.895 167.073 142.812C167.035 143.24 167.035 143.669 167.073 144.097C167.121 144.28 167.211 144.45 167.335 144.593C167.459 144.736 167.614 144.849 167.789 144.923C167.97 144.995 168.163 145.029 168.358 145.024H173.028L193.408 145.134L227.909 145.345L251.169 145.528L257.492 145.602H259.134C259.51 145.602 259.694 145.602 259.694 145.602H259.134H257.492H251.169H227.909L193.408 145.492L173.028 145.409H168.358C168.101 145.419 167.844 145.376 167.605 145.281C167.364 145.177 167.149 145.02 166.977 144.822C166.805 144.623 166.681 144.388 166.614 144.134C166.561 143.893 166.543 143.646 166.559 143.399V142.72C166.559 141.803 166.559 140.885 166.559 139.968C166.559 138.133 166.559 136.297 166.559 134.462C166.559 133.545 166.559 132.627 166.559 131.709C166.542 131.465 166.542 131.22 166.559 130.975C166.594 130.705 166.698 130.449 166.862 130.232C167.02 130.011 167.23 129.831 167.473 129.708C167.716 129.585 167.985 129.522 168.257 129.526L245.003 129.948L258.262 130.039H259.694C259.946 130.04 260.194 130.101 260.418 130.217C260.642 130.334 260.834 130.503 260.978 130.709C261.237 131.108 261.341 131.588 261.272 132.058C261.272 132.489 261.272 132.921 261.272 133.334C261.272 135.004 261.272 136.536 261.272 137.922C261.272 140.674 261.208 142.785 261.189 144.253C261.167 144.535 261.064 144.805 260.894 145.031C260.723 145.257 260.491 145.429 260.226 145.528C260.052 145.636 259.852 145.693 259.648 145.693V145.693Z" fill="#E0E0E0"/>
<path d="M217.118 134.701H173.955V138.747H217.118V134.701Z" fill="#FFC233"/>
<path opacity="0.2" d="M217.118 134.701H173.955V138.747H217.118V134.701Z" fill="white"/>
<path d="M190.305 158.612L166.705 158.505L166.685 162.836L190.285 162.943L190.305 158.612Z" fill="#FFC233"/>
<path opacity="0.1" d="M190.305 158.612L166.705 158.505L166.685 162.836L190.285 162.943L190.305 158.612Z" fill="black"/>
<path d="M259.051 185.204C259.237 185.182 259.42 185.148 259.602 185.104C259.858 185.022 260.094 184.886 260.293 184.706C260.493 184.525 260.651 184.304 260.758 184.057C260.902 183.687 260.959 183.288 260.923 182.892C260.923 182.452 260.923 181.975 260.923 181.442C260.923 180.378 260.923 179.167 260.923 177.772V171.945C260.967 171.524 260.874 171.099 260.657 170.734C260.431 170.36 260.075 170.083 259.657 169.954C259.2 169.873 258.734 169.848 258.271 169.881H245.067L168.587 169.596C168.175 169.597 167.778 169.748 167.47 170.019C167.161 170.291 166.961 170.666 166.908 171.074C166.908 171.945 166.908 172.909 166.908 173.826C166.908 175.662 166.908 177.497 166.908 179.332C166.908 180.25 166.908 181.167 166.908 182.085C166.874 182.514 166.892 182.945 166.963 183.369C167.077 183.741 167.313 184.064 167.633 184.287C167.972 184.502 168.37 184.605 168.77 184.581H170.046H172.698L193.004 184.681L227.385 184.892L250.564 185.076L256.867 185.149H258.51H259.06H258.51H256.867H250.564H227.385L192.985 185.113L172.679 185.039H168.688C168.192 185.069 167.699 184.937 167.284 184.663C166.866 184.374 166.562 183.949 166.421 183.461C166.339 182.995 166.314 182.52 166.348 182.048C166.348 181.13 166.348 180.213 166.348 179.295C166.348 177.46 166.348 175.625 166.348 173.79C166.348 172.872 166.348 171.955 166.348 171.037C166.415 170.512 166.671 170.03 167.068 169.68C167.465 169.331 167.975 169.138 168.504 169.138L244.985 169.56L258.189 169.661C258.68 169.63 259.174 169.664 259.657 169.762C260.133 169.917 260.536 170.244 260.785 170.679C261.023 171.083 261.126 171.552 261.079 172.019C261.079 172.45 261.079 172.872 261.079 173.294C261.079 174.955 261.079 176.478 261.079 177.882C261.079 179.286 261.079 180.47 261.079 181.552C261.079 182.076 261.079 182.562 261.079 183.011C261.112 183.422 261.046 183.834 260.886 184.213C260.767 184.467 260.595 184.691 260.381 184.872C260.167 185.052 259.917 185.185 259.648 185.26C259.447 185.276 259.245 185.257 259.051 185.204V185.204Z" fill="#E0E0E0"/>
<path d="M190.127 199.838L166.527 199.731L166.508 204.062L190.108 204.169L190.127 199.838Z" fill="#FFC233"/>
<path opacity="0.1" d="M190.127 199.838L166.527 199.731L166.508 204.062L190.108 204.169L190.127 199.838Z" fill="black"/>
<path d="M258.868 226.413C259.053 226.391 259.237 226.357 259.418 226.312C259.673 226.231 259.908 226.097 260.108 225.918C260.307 225.739 260.466 225.52 260.574 225.275C260.718 224.905 260.775 224.506 260.74 224.11C260.74 223.66 260.74 223.192 260.74 222.651C260.74 221.596 260.74 220.375 260.74 218.981V213.154C260.783 212.732 260.69 212.307 260.473 211.943C260.242 211.576 259.887 211.303 259.473 211.172C259.017 211.087 258.551 211.059 258.088 211.089H244.884L168.403 210.805C167.992 210.806 167.595 210.956 167.286 211.228C166.977 211.5 166.778 211.874 166.724 212.282C166.724 213.2 166.724 214.117 166.724 215.035C166.724 216.87 166.724 218.705 166.724 220.541C166.724 221.458 166.724 222.376 166.724 223.293C166.69 223.719 166.709 224.147 166.779 224.569C166.889 224.943 167.126 225.268 167.449 225.486C167.786 225.706 168.186 225.809 168.587 225.78H172.578L192.885 225.89L227.266 226.101L250.444 226.285L256.748 226.358H258.391C258.758 226.358 258.941 226.358 258.941 226.358C258.941 226.358 258.758 226.358 258.391 226.358H256.748H250.444H227.266L192.885 226.257L172.578 226.174H168.587C168.09 226.208 167.596 226.076 167.183 225.798C166.766 225.509 166.461 225.084 166.321 224.596C166.238 224.13 166.214 223.655 166.247 223.183C166.247 222.266 166.247 221.348 166.247 220.43C166.247 218.595 166.247 216.76 166.247 214.925C166.247 214.007 166.247 213.09 166.247 212.126C166.312 211.602 166.566 211.12 166.961 210.77C167.357 210.421 167.866 210.227 168.394 210.227L244.875 210.649L258.079 210.75C258.57 210.72 259.064 210.754 259.547 210.851C260.023 211.007 260.426 211.334 260.675 211.768C260.913 212.173 261.016 212.642 260.969 213.108C260.969 213.539 260.969 213.971 260.969 214.384C260.969 216.044 260.969 217.568 260.969 218.971C260.969 220.375 260.969 221.559 260.969 222.642C260.969 223.165 260.969 223.651 260.969 224.101C261.004 224.511 260.938 224.924 260.776 225.303C260.657 225.556 260.485 225.78 260.271 225.961C260.057 226.142 259.807 226.274 259.538 226.349C259.322 226.422 259.093 226.444 258.868 226.413V226.413Z" fill="#E0E0E0"/>
<path d="M216.196 175.356L173.034 175.16L173.016 179.207L216.178 179.402L216.196 175.356Z" fill="#FFC233"/>
<path opacity="0.2" d="M216.196 175.356L173.034 175.16L173.016 179.207L216.178 179.402L216.196 175.356Z" fill="white"/>
<path d="M176.938 218.926C176.911 219.295 176.776 219.648 176.55 219.941C176.324 220.234 176.017 220.454 175.667 220.575C175.317 220.695 174.94 220.71 174.581 220.618C174.223 220.525 173.899 220.33 173.651 220.056C173.403 219.781 173.24 219.44 173.184 219.074C173.128 218.708 173.181 218.334 173.335 217.998C173.49 217.662 173.74 217.378 174.054 217.183C174.368 216.987 174.733 216.888 175.103 216.898C175.614 216.926 176.093 217.155 176.437 217.535C176.78 217.914 176.96 218.414 176.938 218.926V218.926Z" fill="#FFC233"/>
<path d="M182.782 218.953C182.8 219.212 182.765 219.471 182.679 219.716C182.592 219.96 182.456 220.184 182.279 220.374C182.102 220.564 181.888 220.715 181.65 220.818C181.413 220.922 181.156 220.975 180.897 220.975C180.637 220.975 180.381 220.922 180.143 220.818C179.905 220.715 179.691 220.564 179.514 220.374C179.338 220.184 179.202 219.96 179.115 219.716C179.028 219.471 178.993 219.212 179.011 218.953C178.993 218.694 179.028 218.435 179.115 218.19C179.202 217.946 179.338 217.722 179.514 217.532C179.691 217.343 179.905 217.191 180.143 217.088C180.381 216.985 180.637 216.931 180.897 216.931C181.156 216.931 181.413 216.985 181.65 217.088C181.888 217.191 182.102 217.343 182.279 217.532C182.456 217.722 182.592 217.946 182.679 218.19C182.765 218.435 182.8 218.694 182.782 218.953V218.953Z" fill="#FFC233"/>
<path d="M188.636 218.981C188.609 219.35 188.475 219.703 188.249 219.996C188.023 220.289 187.716 220.509 187.366 220.63C187.016 220.75 186.638 220.765 186.28 220.673C185.922 220.58 185.598 220.385 185.35 220.111C185.101 219.836 184.939 219.495 184.883 219.129C184.827 218.763 184.879 218.389 185.034 218.053C185.188 217.717 185.438 217.433 185.752 217.237C186.067 217.042 186.431 216.943 186.801 216.953C187.312 216.983 187.79 217.213 188.133 217.592C188.476 217.971 188.657 218.47 188.636 218.981Z" fill="#FFC233"/>
<path d="M194.481 219.008C194.454 219.377 194.319 219.73 194.093 220.023C193.868 220.317 193.561 220.537 193.211 220.657C192.861 220.778 192.483 220.793 192.125 220.7C191.766 220.608 191.443 220.413 191.195 220.138C190.946 219.864 190.784 219.523 190.728 219.157C190.672 218.791 190.724 218.417 190.879 218.08C191.033 217.744 191.283 217.461 191.597 217.265C191.911 217.07 192.276 216.97 192.646 216.98C193.156 217.011 193.634 217.241 193.977 217.62C194.32 217.999 194.501 218.497 194.481 219.008Z" fill="#FFC233"/>
<path d="M200.326 219.026C200.301 219.396 200.167 219.75 199.942 220.045C199.718 220.339 199.411 220.561 199.061 220.683C198.711 220.804 198.333 220.821 197.974 220.729C197.615 220.638 197.291 220.443 197.042 220.169C196.792 219.895 196.629 219.553 196.572 219.187C196.516 218.821 196.568 218.446 196.722 218.11C196.876 217.773 197.126 217.489 197.441 217.293C197.755 217.097 198.121 216.998 198.491 217.008C199 217.039 199.476 217.267 199.819 217.644C200.162 218.021 200.344 218.517 200.326 219.026Z" fill="#FFC233"/>
<path d="M206.18 219.054C206.155 219.422 206.023 219.774 205.8 220.068C205.577 220.361 205.274 220.584 204.926 220.707C204.579 220.83 204.203 220.849 203.845 220.762C203.487 220.674 203.162 220.484 202.911 220.214C202.66 219.944 202.493 219.607 202.431 219.244C202.369 218.881 202.414 218.507 202.562 218.169C202.709 217.831 202.952 217.544 203.261 217.343C203.569 217.141 203.93 217.034 204.299 217.035C204.816 217.054 205.304 217.278 205.656 217.656C206.009 218.034 206.197 218.537 206.18 219.054V219.054Z" fill="#FFC233"/>
<path d="M212.025 219.082C212.043 219.34 212.008 219.6 211.921 219.844C211.835 220.089 211.699 220.313 211.522 220.502C211.345 220.692 211.131 220.843 210.893 220.947C210.655 221.05 210.399 221.103 210.139 221.103C209.88 221.103 209.624 221.05 209.386 220.947C209.148 220.843 208.934 220.692 208.757 220.502C208.58 220.313 208.444 220.089 208.358 219.844C208.271 219.6 208.236 219.34 208.254 219.082C208.236 218.823 208.271 218.563 208.358 218.319C208.444 218.074 208.58 217.85 208.757 217.661C208.934 217.471 209.148 217.32 209.386 217.216C209.624 217.113 209.88 217.06 210.139 217.06C210.399 217.06 210.655 217.113 210.893 217.216C211.131 217.32 211.345 217.471 211.522 217.661C211.699 217.85 211.835 218.074 211.921 218.319C212.008 218.563 212.043 218.823 212.025 219.082Z" fill="#FFC233"/>
<path d="M217.87 219.109C217.845 219.477 217.713 219.829 217.49 220.123C217.268 220.417 216.964 220.639 216.616 220.762C216.269 220.885 215.893 220.904 215.535 220.817C215.177 220.729 214.853 220.539 214.601 220.269C214.35 220 214.183 219.662 214.121 219.299C214.059 218.936 214.104 218.562 214.252 218.224C214.399 217.887 214.642 217.599 214.951 217.398C215.26 217.196 215.62 217.089 215.989 217.09C216.506 217.11 216.994 217.333 217.347 217.711C217.699 218.089 217.887 218.592 217.87 219.109V219.109Z" fill="#FFC233"/>
<path d="M223.715 219.137C223.69 219.506 223.557 219.86 223.332 220.155C223.107 220.449 222.801 220.671 222.451 220.793C222.101 220.914 221.723 220.931 221.364 220.839C221.005 220.748 220.68 220.553 220.431 220.279C220.182 220.005 220.019 219.663 219.962 219.297C219.905 218.931 219.957 218.556 220.111 218.22C220.266 217.883 220.516 217.599 220.83 217.403C221.145 217.207 221.51 217.108 221.88 217.118C222.389 217.149 222.866 217.377 223.208 217.754C223.551 218.131 223.733 218.627 223.715 219.137V219.137Z" fill="#FFC233"/>
<g opacity="0.2">
<path opacity="0.2" d="M176.938 218.926C176.911 219.295 176.776 219.648 176.55 219.941C176.324 220.234 176.017 220.454 175.667 220.575C175.317 220.695 174.94 220.71 174.581 220.618C174.223 220.525 173.899 220.33 173.651 220.056C173.403 219.781 173.24 219.44 173.184 219.074C173.128 218.708 173.181 218.334 173.335 217.998C173.49 217.662 173.74 217.378 174.054 217.183C174.368 216.987 174.733 216.888 175.103 216.898C175.614 216.926 176.093 217.155 176.437 217.535C176.78 217.914 176.96 218.414 176.938 218.926V218.926Z" fill="white"/>
<path opacity="0.2" d="M182.783 218.953C182.801 219.212 182.765 219.471 182.679 219.716C182.592 219.96 182.456 220.184 182.279 220.374C182.103 220.564 181.889 220.715 181.651 220.818C181.413 220.922 181.156 220.975 180.897 220.975C180.638 220.975 180.381 220.922 180.143 220.818C179.906 220.715 179.692 220.564 179.515 220.374C179.338 220.184 179.202 219.96 179.115 219.716C179.029 219.471 178.993 219.212 179.011 218.953C178.993 218.694 179.029 218.435 179.115 218.19C179.202 217.946 179.338 217.722 179.515 217.532C179.692 217.343 179.906 217.191 180.143 217.088C180.381 216.985 180.638 216.931 180.897 216.931C181.156 216.931 181.413 216.985 181.651 217.088C181.889 217.191 182.103 217.343 182.279 217.532C182.456 217.722 182.592 217.946 182.679 218.19C182.765 218.435 182.801 218.694 182.783 218.953V218.953Z" fill="white"/>
<path opacity="0.2" d="M188.637 218.981C188.61 219.35 188.475 219.703 188.249 219.996C188.023 220.289 187.716 220.509 187.366 220.63C187.016 220.75 186.639 220.765 186.28 220.673C185.922 220.581 185.598 220.385 185.35 220.111C185.102 219.836 184.939 219.495 184.883 219.129C184.827 218.763 184.88 218.389 185.034 218.053C185.189 217.717 185.439 217.433 185.753 217.238C186.067 217.042 186.432 216.943 186.802 216.953C187.312 216.984 187.79 217.213 188.133 217.592C188.476 217.971 188.657 218.47 188.637 218.981Z" fill="white"/>
<path opacity="0.2" d="M194.481 219.008C194.454 219.377 194.32 219.73 194.094 220.023C193.868 220.317 193.561 220.537 193.211 220.657C192.861 220.778 192.483 220.793 192.125 220.7C191.766 220.608 191.443 220.413 191.195 220.138C190.946 219.864 190.784 219.523 190.728 219.157C190.672 218.791 190.724 218.417 190.879 218.08C191.033 217.744 191.283 217.461 191.597 217.265C191.912 217.07 192.276 216.97 192.646 216.98C193.157 217.011 193.635 217.241 193.978 217.62C194.321 217.999 194.502 218.497 194.481 219.008Z" fill="white"/>
<path opacity="0.2" d="M200.326 219.026C200.301 219.396 200.168 219.75 199.943 220.045C199.718 220.339 199.411 220.561 199.061 220.683C198.712 220.804 198.334 220.821 197.974 220.729C197.615 220.638 197.291 220.443 197.042 220.169C196.793 219.895 196.629 219.553 196.573 219.187C196.516 218.821 196.568 218.446 196.722 218.11C196.877 217.773 197.127 217.489 197.441 217.293C197.756 217.097 198.121 216.998 198.491 217.008C199 217.039 199.476 217.267 199.819 217.644C200.162 218.021 200.344 218.517 200.326 219.026Z" fill="white"/>
<path opacity="0.2" d="M206.181 219.054C206.156 219.422 206.024 219.774 205.801 220.068C205.578 220.361 205.275 220.584 204.927 220.707C204.58 220.83 204.204 220.849 203.846 220.762C203.488 220.674 203.163 220.484 202.912 220.214C202.661 219.944 202.494 219.607 202.432 219.244C202.37 218.881 202.415 218.507 202.563 218.169C202.71 217.831 202.953 217.544 203.262 217.343C203.57 217.141 203.931 217.034 204.3 217.035C204.817 217.054 205.305 217.278 205.657 217.656C206.01 218.034 206.198 218.537 206.181 219.054V219.054Z" fill="white"/>
<path opacity="0.2" d="M212.025 219.082C212.043 219.34 212.008 219.6 211.921 219.844C211.835 220.089 211.699 220.313 211.522 220.502C211.345 220.692 211.131 220.843 210.893 220.947C210.656 221.05 210.399 221.103 210.14 221.103C209.88 221.103 209.624 221.05 209.386 220.947C209.148 220.843 208.934 220.692 208.757 220.502C208.581 220.313 208.445 220.089 208.358 219.844C208.271 219.6 208.236 219.34 208.254 219.082C208.236 218.823 208.271 218.563 208.358 218.319C208.445 218.074 208.581 217.85 208.757 217.661C208.934 217.471 209.148 217.32 209.386 217.216C209.624 217.113 209.88 217.06 210.14 217.06C210.399 217.06 210.656 217.113 210.893 217.216C211.131 217.32 211.345 217.471 211.522 217.661C211.699 217.85 211.835 218.074 211.921 218.319C212.008 218.563 212.043 218.823 212.025 219.082Z" fill="white"/>
<path opacity="0.2" d="M217.87 219.109C217.845 219.477 217.713 219.829 217.49 220.123C217.268 220.417 216.964 220.639 216.617 220.762C216.269 220.885 215.894 220.904 215.535 220.817C215.177 220.729 214.853 220.539 214.602 220.269C214.35 220 214.183 219.662 214.121 219.299C214.059 218.936 214.105 218.562 214.252 218.224C214.4 217.887 214.643 217.599 214.951 217.398C215.26 217.196 215.621 217.09 215.989 217.09C216.506 217.11 216.994 217.333 217.347 217.711C217.699 218.09 217.888 218.592 217.87 219.109V219.109Z" fill="white"/>
<path opacity="0.2" d="M223.716 219.137C223.691 219.506 223.558 219.86 223.333 220.155C223.108 220.449 222.801 220.671 222.451 220.793C222.101 220.915 221.723 220.931 221.364 220.839C221.005 220.748 220.681 220.553 220.432 220.279C220.183 220.005 220.019 219.664 219.963 219.297C219.906 218.931 219.958 218.557 220.112 218.22C220.267 217.883 220.517 217.599 220.831 217.403C221.146 217.207 221.511 217.108 221.881 217.118C222.39 217.149 222.866 217.377 223.209 217.754C223.552 218.131 223.734 218.627 223.716 219.137V219.137Z" fill="white"/>
</g>
<path d="M215.411 86.6746C216.048 86.3939 216.589 85.932 216.966 85.3463C217.343 84.7606 217.539 84.077 217.53 83.3805C217.554 82.9278 217.486 82.475 217.329 82.0496C217.172 81.6243 216.93 81.2354 216.618 80.9065C216.306 80.5776 215.93 80.3158 215.514 80.1368C215.097 79.9578 214.648 79.8655 214.195 79.8655C213.742 79.8655 213.293 79.9578 212.877 80.1368C212.46 80.3158 212.084 80.5776 211.772 80.9065C211.46 81.2354 211.218 81.6243 211.061 82.0496C210.905 82.475 210.836 82.9278 210.86 83.3805C210.846 84.0839 211.04 84.7757 211.419 85.3685C211.798 85.9614 212.344 86.4286 212.988 86.7114C207.85 87.4821 208.079 93.061 208.079 93.061L220.228 93.1161C220.228 93.1161 220.513 87.4362 215.411 86.6746Z" fill="#CA2E55"/>
<path opacity="0.1" d="M215.411 86.6746C216.048 86.3939 216.589 85.932 216.966 85.3463C217.343 84.7606 217.539 84.077 217.53 83.3805C217.554 82.9278 217.486 82.475 217.329 82.0496C217.172 81.6243 216.93 81.2354 216.618 80.9065C216.306 80.5776 215.93 80.3158 215.514 80.1368C215.097 79.9578 214.648 79.8655 214.195 79.8655C213.742 79.8655 213.293 79.9578 212.877 80.1368C212.46 80.3158 212.084 80.5776 211.772 80.9065C211.46 81.2354 211.218 81.6243 211.061 82.0496C210.905 82.475 210.836 82.9278 210.86 83.3805C210.846 84.0839 211.04 84.7757 211.419 85.3685C211.798 85.9614 212.344 86.4286 212.988 86.7114C207.85 87.4821 208.079 93.061 208.079 93.061L220.228 93.1161C220.228 93.1161 220.513 87.4362 215.411 86.6746Z" fill="#CA2E55"/>
<path d="M235.152 96.7143L191.852 96.5178L191.829 101.693L235.129 101.889L235.152 96.7143Z" fill="#FFC233"/>
<path opacity="0.2" d="M235.152 96.7143L191.852 96.5178L191.829 101.693L235.129 101.889L235.152 96.7143Z" fill="white"/>
<path d="M120.635 380.144V372.299L106.569 372.198L106.45 384.063L107.321 384.127C111.203 384.375 127.068 384.742 129.674 383.934C132.573 383.035 120.635 380.144 120.635 380.144Z" fill="#FFC233"/>
<path d="M130.004 383.2C130.004 383.328 124.737 383.439 118.25 383.439C111.763 383.439 106.496 383.328 106.496 383.2C106.496 383.072 111.763 382.961 118.25 382.961C124.737 382.961 130.004 383.072 130.004 383.2Z" fill="#263238"/>
<path d="M120.883 381.75C120.764 381.686 120.883 381.273 121.168 380.833C121.452 380.392 121.837 380.209 121.929 380.3C122.021 380.392 121.828 380.741 121.553 381.117C121.278 381.493 121.002 381.814 120.883 381.75Z" fill="#263238"/>
<path d="M121.782 382.264C121.654 382.264 121.718 381.75 121.993 381.264C122.269 380.778 122.636 380.484 122.737 380.557C122.838 380.631 122.672 381.044 122.415 381.475C122.159 381.906 121.902 382.31 121.782 382.264Z" fill="#263238"/>
<path d="M110.734 383.163C110.679 383.163 110.468 382.998 110.166 382.65C109.796 382.201 109.384 381.79 108.936 381.42C108.495 381.068 107.97 380.837 107.413 380.75C106.982 380.695 106.706 380.75 106.679 380.695C106.651 380.64 106.917 380.447 107.422 380.411C108.088 380.397 108.738 380.617 109.257 381.035C109.744 381.431 110.154 381.913 110.468 382.457C110.679 382.861 110.789 383.127 110.734 383.163Z" fill="#263238"/>
<path d="M120.929 380.273C120.993 380.383 120.755 380.658 120.351 380.805C119.947 380.952 119.59 380.897 119.571 380.805C119.553 380.713 119.837 380.521 120.186 380.392C120.535 380.264 120.856 380.163 120.929 380.273Z" fill="#263238"/>
<path d="M120.709 379.511C120.709 379.649 120.342 379.759 119.865 379.768C119.388 379.778 119.011 379.667 119.021 379.539C119.03 379.41 119.406 379.291 119.865 379.282C120.324 379.273 120.691 379.383 120.709 379.511Z" fill="#263238"/>
<path d="M155.274 380.144V372.299L141.208 372.198L141.088 383.943L141.96 384.008C145.841 384.255 161.716 384.742 164.312 383.934C167.212 383.035 155.274 380.144 155.274 380.144Z" fill="#FFC233"/>
<path d="M164.643 383.218C164.643 383.347 159.385 383.457 152.889 383.457C146.392 383.457 141.144 383.347 141.144 383.218C141.144 383.09 146.401 382.98 152.889 382.98C159.376 382.98 164.643 383.09 164.643 383.218Z" fill="#263238"/>
<path d="M155.522 381.75C155.411 381.686 155.522 381.273 155.806 380.833C156.09 380.392 156.476 380.209 156.568 380.3C156.659 380.392 156.467 380.741 156.191 381.117C155.916 381.493 155.641 381.814 155.522 381.75Z" fill="#263238"/>
<path d="M156.42 382.264C156.301 382.264 156.356 381.75 156.641 381.264C156.925 380.778 157.283 380.484 157.384 380.557C157.485 380.631 157.311 381.044 157.054 381.475C156.797 381.906 156.549 382.31 156.42 382.264Z" fill="#263238"/>
<path d="M145.373 383.163C145.318 383.163 145.116 382.998 144.804 382.65C144.435 382.201 144.023 381.79 143.575 381.42C143.134 381.068 142.609 380.837 142.051 380.75C141.629 380.695 141.345 380.75 141.317 380.695C141.29 380.64 141.556 380.447 142.061 380.411C142.727 380.397 143.376 380.617 143.896 381.035C144.385 381.429 144.796 381.911 145.107 382.457C145.318 382.861 145.428 383.127 145.373 383.163Z" fill="#263238"/>
<path d="M155.567 380.273C155.632 380.383 155.393 380.658 154.989 380.805C154.586 380.952 154.228 380.897 154.209 380.805C154.191 380.713 154.475 380.521 154.824 380.392C155.173 380.264 155.494 380.163 155.567 380.273Z" fill="#263238"/>
<path d="M155.366 379.511C155.366 379.649 154.999 379.759 154.521 379.768C154.044 379.778 153.677 379.667 153.686 379.539C153.696 379.41 154.063 379.291 154.521 379.282C154.98 379.273 155.366 379.383 155.366 379.511Z" fill="#263238"/>
<path d="M207.099 147.171C206.732 146.795 205.823 146.978 205.823 146.978C205.915 146.45 205.915 145.91 205.823 145.382C205.658 144.868 204.502 144.969 204.502 144.969C204.449 144.536 204.449 144.098 204.502 143.666C204.511 143.57 204.491 143.473 204.443 143.39C204.395 143.306 204.323 143.239 204.236 143.198C203.689 142.975 203.101 142.868 202.511 142.886C201.804 142.381 204.667 138.371 205.732 137.087C206.796 135.802 206.603 134.802 205.658 134.802C205.007 134.802 201.667 138.656 200.639 139.949C199.611 141.243 196.886 144.84 196.794 141.968C196.703 139.096 195.547 136.931 194.822 136.564C194.097 136.197 193.326 137.059 193.721 137.857C194.067 138.764 194.283 139.716 194.363 140.684C194.463 141.454 194.428 142.237 194.262 142.996C193.958 144.408 193.544 145.795 193.023 147.143H192.95C192.95 147.143 172.928 166.348 171.478 167.715C170.185 168.945 144.162 166.256 138.941 165.706C137.167 165.446 135.375 165.324 133.582 165.339C131.316 165.44 130.912 165.761 128.655 165.789C122.954 165.852 117.267 166.352 111.643 167.284C109.096 167.717 106.718 168.841 104.766 170.534C102.815 172.226 101.366 174.422 100.577 176.882C95.3192 193.307 83.409 232.185 81.3077 254.023C79.7199 256.902 78.2865 259.864 77.0135 262.896C75.5362 266.915 75.894 267.053 76.3895 267.144C77.7292 267.392 79.2524 260.18 79.8213 261.923C80.3902 263.667 76.9309 270.521 78.3348 270.723C80.1699 270.98 81.6289 263.382 81.8032 262.777C81.9776 262.171 82.886 262.364 82.7208 262.933C82.4547 263.74 79.8763 272.301 81.6748 272.577C82.6658 272.723 82.7759 270.916 82.7759 270.916C82.7759 270.916 84.611 262.722 85.446 262.887C86.281 263.052 85.391 267.888 84.9689 269.503C84.5468 271.118 85.134 271.934 85.9966 271.54C86.5838 271.264 87.9877 266.355 88.3731 264.759C88.7585 263.162 89.722 258.739 91.0157 261.3C92.3095 263.86 94.2732 265.346 95.0806 265.383C95.2626 265.362 95.4341 265.287 95.5731 265.168C95.7121 265.048 95.8122 264.89 95.8606 264.713C95.9089 264.537 95.9033 264.35 95.8444 264.176C95.7856 264.003 95.6761 263.851 95.5302 263.74C94.8357 263.062 94.2396 262.29 93.7593 261.446C93.3313 260.789 93.0208 260.063 92.8417 259.299C92.472 257.777 92.2568 256.222 92.1994 254.656L92.0526 253.739C94.108 243.563 100.026 213.695 108.569 194.619L112.074 201.831L113.597 207.171L104.256 230.23L144.098 229.707L138.152 206.823L145.373 182.966C153.182 183.14 173.231 183.434 176.571 181.92C180.773 180.084 202.511 152.63 202.511 152.63C203.928 151.529 205.285 150.353 206.576 149.107C206.576 149.107 207.897 147.997 207.099 147.171Z" fill="#FFBE9D"/>
<path d="M102.504 213.191C103.66 209.245 109.597 189.737 109.597 189.737C109.597 189.737 112.515 205.639 111.744 207.557C111.035 209.199 110.197 210.782 109.239 212.292C102.504 222.541 103.385 227.67 103.385 227.67L144.079 226.431C144.171 220.742 140.804 207.511 140.106 205.401C139.409 203.29 141.73 196.381 141.73 196.381C141.73 196.381 146.318 191.71 146.153 189.306C146.066 187.147 145.799 184.998 145.355 182.883L170.13 183.801L169.35 167.009L133.766 163.449C132.527 166.945 121.323 165.229 121.323 165.229C109.23 165.633 108.477 167.853 103.449 171.762C98.4206 175.671 90.0981 209.218 90.0981 209.218L102.504 213.191Z" fill="#FFC233"/>
<path d="M126.563 209.218C125.858 209.344 125.14 209.381 124.425 209.328C123.095 209.328 121.269 209.236 119.259 209.034C117.25 208.832 115.433 208.548 114.139 208.291C113.426 208.199 112.726 208.02 112.056 207.759C112.774 207.759 113.489 207.826 114.194 207.96C115.497 208.126 117.305 208.355 119.305 208.557C121.305 208.759 123.122 208.896 124.434 208.988C125.15 208.997 125.862 209.074 126.563 209.218V209.218Z" fill="#263238"/>
<path d="M129.353 205.758C128.647 206.104 127.901 206.36 127.132 206.52C123.471 207.482 119.694 207.93 115.91 207.85C115.127 207.876 114.344 207.802 113.579 207.63C114.352 207.533 115.131 207.493 115.91 207.511C117.351 207.465 119.333 207.364 121.516 207.107C123.7 206.85 125.646 206.483 127.022 206.19C127.786 205.985 128.566 205.841 129.353 205.758V205.758Z" fill="#263238"/>
<path d="M143.042 190.325C143.024 191.024 142.928 191.72 142.758 192.398C142.519 193.674 142.152 195.417 141.684 197.326C141.216 199.234 140.767 200.996 140.363 202.189C140.201 202.872 139.96 203.534 139.647 204.162C139.698 203.464 139.828 202.775 140.033 202.106C140.381 200.675 140.776 199.023 141.216 197.216C141.657 195.408 142.079 193.756 142.427 192.325C142.552 191.636 142.758 190.964 143.042 190.325V190.325Z" fill="#263238"/>
<path d="M102.935 210.851C100.812 210.523 98.7171 210.035 96.6678 209.392C94.5738 208.902 92.5189 208.258 90.52 207.465C92.6418 207.798 94.7364 208.286 96.7871 208.924C98.8816 209.412 100.937 210.056 102.935 210.851V210.851Z" fill="#263238"/>
<path d="M145.795 182.681C145.449 182.741 145.095 182.741 144.749 182.681C143.79 182.583 142.849 182.358 141.95 182.011C140.449 181.447 139.083 180.576 137.939 179.452C136.795 178.328 135.898 176.978 135.307 175.487C134.654 173.848 134.375 172.083 134.49 170.321C134.531 168.869 134.966 167.454 135.747 166.229C136.297 165.404 137.119 164.797 138.069 164.513C138.323 164.443 138.585 164.409 138.849 164.412C139.032 164.412 139.124 164.412 139.124 164.412C139.124 164.412 138.739 164.412 138.124 164.66C137.252 164.982 136.513 165.586 136.023 166.376C134.775 168.339 134.426 171.927 135.757 175.276C136.376 176.855 137.345 178.274 138.592 179.424C139.613 180.365 140.79 181.122 142.07 181.663C143.27 182.137 144.52 182.479 145.795 182.681V182.681Z" fill="#263238"/>
<path d="M167.184 183.47C166.955 180.656 166.881 177.832 166.964 175.01C166.892 172.191 166.978 169.369 167.221 166.559C167.451 169.37 167.524 172.191 167.441 175.01C167.518 177.833 167.433 180.658 167.184 183.47V183.47Z" fill="#263238"/>
<path d="M133.527 164.476C133.628 162.43 133.839 160.118 133.839 160.118C133.839 160.118 138.904 159.558 139.207 154.328C139.509 149.098 139.207 137.032 139.207 137.032L130.031 132.333L119.846 140.344L121.415 166.495L130.756 167.091C131.47 167.111 132.162 166.847 132.682 166.357C133.201 165.867 133.505 165.19 133.527 164.476V164.476Z" fill="#FFBE9D"/>
<path d="M134.435 150.19C134.435 150.19 134.435 150.291 134.353 150.41C134.284 150.496 134.196 150.565 134.095 150.61C133.995 150.654 133.884 150.674 133.774 150.667C133.187 150.667 132.618 149.988 132.416 149.199C132.32 148.816 132.32 148.416 132.416 148.033C132.435 147.866 132.495 147.707 132.592 147.569C132.688 147.431 132.817 147.319 132.967 147.244C133.09 147.193 133.229 147.193 133.352 147.244C133.444 147.29 133.518 147.364 133.563 147.455C133.628 147.611 133.563 147.712 133.563 147.703C133.563 147.694 133.563 147.611 133.472 147.519C133.424 147.454 133.353 147.408 133.274 147.391C133.194 147.374 133.111 147.387 133.04 147.428C132.928 147.496 132.834 147.591 132.769 147.705C132.703 147.819 132.667 147.948 132.664 148.079C132.587 148.42 132.587 148.775 132.664 149.116C132.848 149.832 133.343 150.41 133.784 150.465C133.87 150.477 133.957 150.47 134.041 150.447C134.125 150.423 134.203 150.382 134.27 150.327C134.38 150.254 134.417 150.18 134.435 150.19Z" fill="#EB996E"/>
<path d="M142.355 134.205C141.648 131.801 139.088 130.608 136.757 129.948C133.206 128.938 129.371 128.498 125.902 129.773C122.434 131.049 118.268 133.288 118.268 137.114C116.222 136.949 115.047 138.738 114.24 140.959C113.724 142.312 113.414 143.735 113.322 145.18V145.18C113.065 150.19 111.662 157.108 108.413 160.779C106.578 162.825 104.036 164.238 102.99 166.789C102.073 169 102.55 171.624 101.697 173.863C100.935 175.836 99.2558 177.24 98.0263 178.956C96.7736 180.902 96.0364 183.135 95.8839 185.445C95.7314 187.755 96.1687 190.065 97.1546 192.16C98.1475 194.2 99.5456 196.017 101.263 197.5C102.981 198.983 104.983 200.101 107.147 200.785C111.433 202.089 116.004 202.134 120.314 200.913C123.549 200.14 126.567 198.644 129.141 196.537C131.775 194.386 133.584 191.39 134.262 188.058C134.913 184.314 133.867 180.506 133.087 176.781C130.646 165.009 131.344 164.394 134.427 153.465C134.5 153.273 134.537 153.071 134.592 152.878C134.647 152.685 134.674 152.594 134.711 152.447C134.799 152.015 134.845 151.575 134.849 151.135C134.398 151.302 133.91 151.338 133.44 151.237C132.97 151.136 132.539 150.903 132.197 150.566C131.854 150.206 131.615 149.76 131.505 149.276C131.395 148.791 131.419 148.286 131.573 147.813C131.79 147.296 132.112 146.831 132.52 146.447C132.928 146.063 133.412 145.769 133.94 145.583C134.959 145.161 136.051 144.941 137.051 144.473C139.171 143.464 140.639 141.372 141.639 139.179C142.461 137.659 142.715 135.895 142.355 134.205V134.205Z" fill="#263238"/>
<path d="M134.803 150.437C134.997 150.724 135.157 151.032 135.28 151.355C135.555 151.933 135.922 152.75 136.326 153.695L136.399 153.869H136.207L135.289 153.952C134.656 153.952 134.124 154.071 133.5 154.062C133.445 154.05 133.395 154.024 133.353 153.987C133.312 153.95 133.28 153.903 133.261 153.851C133.234 153.767 133.234 153.677 133.261 153.594C133.282 153.47 133.31 153.348 133.344 153.227L133.509 152.575C133.592 152.141 133.721 151.716 133.894 151.309C133.877 151.752 133.813 152.192 133.702 152.621L133.573 153.273C133.527 153.493 133.445 153.832 133.573 153.805C134.032 153.805 134.683 153.704 135.289 153.667L136.207 153.585L136.087 153.787C135.693 152.869 135.362 152.006 135.17 151.41C135.001 151.105 134.877 150.778 134.803 150.437V150.437Z" fill="#FFC233"/>
<path d="M103.385 227.67L144.08 226.431L161.789 295.562L158.532 374.859H137.014L139.648 297.25L123.911 249.123L126.334 377.933L104.587 378.254L102.302 257.18C102.201 253.812 101.1 246.224 101.513 242.884L103.385 227.67Z" fill="#263238"/>
<path d="M129.325 250.105C128.659 250.147 127.99 250.107 127.334 249.986C126.104 249.839 124.425 249.582 122.581 249.215C120.736 248.848 119.085 248.426 117.892 248.086C117.254 247.946 116.637 247.724 116.057 247.426C116.057 247.288 119.048 248.004 122.718 248.747C126.389 249.49 129.343 249.967 129.325 250.105Z" fill="#455A64"/>
<path d="M158.311 370.51C158.311 370.638 153.439 370.749 147.429 370.749C141.419 370.749 136.537 370.638 136.537 370.51C136.537 370.381 141.409 370.271 147.429 370.271C153.448 370.271 158.311 370.372 158.311 370.51Z" fill="#455A64"/>
<path d="M126.141 374.584C126.141 374.722 121.406 374.823 115.57 374.823C109.735 374.823 105.009 374.722 105.009 374.584C105.009 374.446 109.744 374.345 115.57 374.345C121.397 374.345 126.141 374.456 126.141 374.584Z" fill="#455A64"/>
<path d="M123.333 374.254C123.205 374.254 122.636 346.112 122.058 311.4C121.48 276.687 121.14 248.527 121.259 248.527C121.379 248.527 121.966 276.66 122.535 311.39C123.104 346.121 123.471 374.254 123.333 374.254Z" fill="#455A64"/>
<path d="M155.421 370.51C155.411 370.385 155.411 370.259 155.421 370.134V369.033C155.421 368.042 155.494 366.619 155.549 364.812C155.678 361.141 155.861 355.81 156.09 349.277C156.586 336.137 157.283 318.024 158.045 298.03C158.045 297.838 158.045 297.654 158.045 297.489V297.553C153.228 278.284 148.869 260.795 145.703 248.141L142.033 233.176C141.611 231.423 141.29 230.056 141.061 229.102C140.95 228.652 140.877 228.303 140.813 228.037C140.777 227.918 140.755 227.795 140.749 227.67C140.796 227.786 140.833 227.906 140.859 228.028C140.932 228.285 141.024 228.634 141.152 229.074C141.4 229.992 141.758 231.386 142.217 233.13C143.134 236.672 144.428 241.773 146.043 248.059C149.236 260.703 153.641 278.146 158.522 297.443V297.507C158.522 297.672 158.522 297.865 158.522 298.049C157.705 318.043 156.962 336.147 156.421 349.286C156.136 355.829 155.898 361.123 155.733 364.812C155.641 366.647 155.567 368.042 155.522 369.033C155.522 369.501 155.467 369.868 155.457 370.134C155.459 370.26 155.446 370.386 155.421 370.51V370.51Z" fill="#455A64"/>
<path d="M148.401 295.874C146.856 296.382 145.263 296.735 143.648 296.929C141.666 297.268 139.978 297.507 139.216 297.544V297.36C139.464 297.434 139.592 297.48 139.592 297.516C139.592 297.553 139.436 297.516 139.179 297.516H138.629L139.179 297.351C139.895 297.14 141.584 296.791 143.565 296.433C145.155 296.089 146.775 295.901 148.401 295.874Z" fill="#455A64"/>
<path d="M148.025 298.507C146.594 298.573 145.159 298.508 143.74 298.315C142.306 298.285 140.878 298.129 139.473 297.847C142.341 297.613 145.227 297.836 148.025 298.507V298.507Z" fill="#455A64"/>
<path opacity="0.2" d="M103.21 229.129C103.692 229.748 104.299 230.258 104.992 230.627C105.684 230.995 106.447 231.213 107.229 231.267C108.868 231.461 110.526 231.43 112.157 231.175C122.663 230.01 133.793 228.936 144.079 226.431C130.765 227.175 116.699 226.927 103.385 227.67L103.247 228.808" fill="black"/>
<g opacity="0.2">
<path opacity="0.2" d="M116.928 247.894L124.434 277.018L123.911 249.123L116.928 247.894Z" fill="black"/>
</g>
</svg>
