
<svg width="348" height="485" viewBox="0 0 348 485" fill="none" xmlns="http://www.w3.org/2000/svg">
<path d="M311.948 33.5C311.948 -80.6848 273.694 -174.442 206.576 -239.653C139.455 -304.868 43.3616 -341.636 -72.5 -341.636C-304.249 -341.636 -491.8 -194.596 -491.8 33.5C-491.8 261.877 -303.961 483.714 -72.5 483.714C-46.4323 483.714 -24.1413 471.227 -4.15619 451.309C15.8426 431.378 33.439 404.098 50.0894 374.724C58.0522 360.677 65.7872 346.172 73.4612 331.781L74.4976 329.838C82.5089 314.816 90.4619 299.948 98.5314 285.918C114.656 257.882 131.314 233.067 149.966 216.982C172.075 197.917 193.311 184.631 212.698 173.488C217.876 170.512 222.913 167.693 227.795 164.961C241.229 157.444 253.491 150.582 264.295 142.898C278.977 132.456 290.856 120.562 299.085 103.609C307.321 86.64 311.948 64.5023 311.948 33.5Z" stroke="#FFC233" stroke-width="2.4"/>
<path d="M-72.5 -381C159.736 -381 348 -195.422 348 33.5C348 157.961 218.828 141.912 130.719 217.891C56.7678 281.66 33.4732 448 -72.5 448C-304.736 448 -493 262.422 -493 33.5C-493 -195.422 -304.736 -381 -72.5 -381Z" fill="url(#paint0_linear_365_797)"/>
<defs>
<linearGradient id="paint0_linear_365_797" x1="253" y1="48.5" x2="-152.142" y2="147.713" gradientUnits="userSpaceOnUse">
<stop stop-color="#FBD34B" stop-opacity="0.15"/>
<stop offset="1" stop-color="white" stop-opacity="0.31"/>
</linearGradient>
</defs>
</svg>

